<svg width="720" height="756" viewBox="0 0 720 756" fill="none" xmlns="http://www.w3.org/2000/svg">
<circle cx="619.5" cy="50.5" r="2.5" fill="#283897"/>
<circle cx="619.5" cy="61.0555" r="2.5" fill="#283897"/>
<circle cx="619.5" cy="71.6111" r="2.5" fill="#283897"/>
<circle cx="619.5" cy="82.1667" r="2.5" fill="#283897"/>
<circle cx="619.5" cy="92.7222" r="2.5" fill="#283897"/>
<circle cx="619.5" cy="103.278" r="2.5" fill="#283897"/>
<circle cx="619.5" cy="113.833" r="2.5" fill="#283897"/>
<circle cx="619.5" cy="124.389" r="2.5" fill="#283897"/>
<circle cx="619.5" cy="134.944" r="2.5" fill="#283897"/>
<circle cx="619.5" cy="145.5" r="2.5" fill="#283897"/>
<circle cx="630.056" cy="50.5" r="2.5" fill="#283897"/>
<circle cx="630.056" cy="61.0555" r="2.5" fill="#283897"/>
<circle cx="630.056" cy="71.6111" r="2.5" fill="#283897"/>
<circle cx="630.056" cy="82.1667" r="2.5" fill="#283897"/>
<circle cx="630.056" cy="92.7222" r="2.5" fill="#283897"/>
<circle cx="630.056" cy="103.278" r="2.5" fill="#283897"/>
<circle cx="630.056" cy="113.833" r="2.5" fill="#283897"/>
<circle cx="630.056" cy="124.389" r="2.5" fill="#283897"/>
<circle cx="630.056" cy="134.944" r="2.5" fill="#283897"/>
<circle cx="630.056" cy="145.5" r="2.5" fill="#283897"/>
<circle cx="640.611" cy="50.5" r="2.5" fill="#283897"/>
<circle cx="640.611" cy="61.0555" r="2.5" fill="#283897"/>
<circle cx="640.611" cy="71.6111" r="2.5" fill="#283897"/>
<circle cx="640.611" cy="82.1667" r="2.5" fill="#283897"/>
<circle cx="640.611" cy="92.7222" r="2.5" fill="#283897"/>
<circle cx="640.611" cy="103.278" r="2.5" fill="#283897"/>
<circle cx="640.611" cy="113.833" r="2.5" fill="#283897"/>
<circle cx="640.611" cy="124.389" r="2.5" fill="#283897"/>
<circle cx="640.611" cy="134.944" r="2.5" fill="#283897"/>
<circle cx="640.611" cy="145.5" r="2.5" fill="#283897"/>
<circle cx="651.167" cy="50.5" r="2.5" fill="#283897"/>
<circle cx="651.167" cy="61.0555" r="2.5" fill="#283897"/>
<circle cx="651.167" cy="71.6111" r="2.5" fill="#283897"/>
<circle cx="651.167" cy="82.1667" r="2.5" fill="#283897"/>
<circle cx="651.167" cy="92.7222" r="2.5" fill="#283897"/>
<circle cx="651.167" cy="103.278" r="2.5" fill="#283897"/>
<circle cx="651.167" cy="113.833" r="2.5" fill="#283897"/>
<circle cx="651.167" cy="124.389" r="2.5" fill="#283897"/>
<circle cx="651.167" cy="134.944" r="2.5" fill="#283897"/>
<circle cx="651.167" cy="145.5" r="2.5" fill="#283897"/>
<circle cx="661.722" cy="50.5" r="2.5" fill="#283897"/>
<circle cx="661.722" cy="61.0555" r="2.5" fill="#283897"/>
<circle cx="661.722" cy="71.6111" r="2.5" fill="#283897"/>
<circle cx="661.722" cy="82.1667" r="2.5" fill="#283897"/>
<circle cx="661.722" cy="92.7222" r="2.5" fill="#283897"/>
<circle cx="661.722" cy="103.278" r="2.5" fill="#283897"/>
<circle cx="661.722" cy="113.833" r="2.5" fill="#283897"/>
<circle cx="661.722" cy="124.389" r="2.5" fill="#283897"/>
<circle cx="661.722" cy="134.944" r="2.5" fill="#283897"/>
<circle cx="661.722" cy="145.5" r="2.5" fill="#283897"/>
<circle cx="672.278" cy="50.5" r="2.5" fill="#283897"/>
<circle cx="672.278" cy="61.0555" r="2.5" fill="#283897"/>
<circle cx="672.278" cy="71.6111" r="2.5" fill="#283897"/>
<circle cx="672.278" cy="82.1667" r="2.5" fill="#283897"/>
<circle cx="672.278" cy="92.7222" r="2.5" fill="#283897"/>
<circle cx="672.278" cy="103.278" r="2.5" fill="#283897"/>
<circle cx="672.278" cy="113.833" r="2.5" fill="#283897"/>
<circle cx="672.278" cy="124.389" r="2.5" fill="#283897"/>
<circle cx="672.278" cy="134.944" r="2.5" fill="#283897"/>
<circle cx="672.278" cy="145.5" r="2.5" fill="#283897"/>
<circle cx="682.833" cy="50.5" r="2.5" fill="#283897"/>
<circle cx="682.833" cy="61.0555" r="2.5" fill="#283897"/>
<circle cx="682.833" cy="71.6111" r="2.5" fill="#283897"/>
<circle cx="682.833" cy="82.1667" r="2.5" fill="#283897"/>
<circle cx="682.833" cy="92.7222" r="2.5" fill="#283897"/>
<circle cx="682.833" cy="103.278" r="2.5" fill="#283897"/>
<circle cx="682.833" cy="113.833" r="2.5" fill="#283897"/>
<circle cx="682.833" cy="124.389" r="2.5" fill="#283897"/>
<circle cx="682.833" cy="134.944" r="2.5" fill="#283897"/>
<circle cx="682.833" cy="145.5" r="2.5" fill="#283897"/>
<circle cx="693.389" cy="50.5" r="2.5" fill="#283897"/>
<circle cx="693.389" cy="61.0555" r="2.5" fill="#283897"/>
<circle cx="693.389" cy="71.6111" r="2.5" fill="#283897"/>
<circle cx="693.389" cy="82.1667" r="2.5" fill="#283897"/>
<circle cx="693.389" cy="92.7222" r="2.5" fill="#283897"/>
<circle cx="693.389" cy="103.278" r="2.5" fill="#283897"/>
<circle cx="693.389" cy="113.833" r="2.5" fill="#283897"/>
<circle cx="693.389" cy="124.389" r="2.5" fill="#283897"/>
<circle cx="693.389" cy="134.944" r="2.5" fill="#283897"/>
<circle cx="693.389" cy="145.5" r="2.5" fill="#283897"/>
<circle cx="703.944" cy="50.5" r="2.5" fill="#283897"/>
<circle cx="703.944" cy="61.0555" r="2.5" fill="#283897"/>
<circle cx="703.944" cy="71.6111" r="2.5" fill="#283897"/>
<circle cx="703.944" cy="82.1667" r="2.5" fill="#283897"/>
<circle cx="703.944" cy="92.7222" r="2.5" fill="#283897"/>
<circle cx="703.944" cy="103.278" r="2.5" fill="#283897"/>
<circle cx="703.944" cy="113.833" r="2.5" fill="#283897"/>
<circle cx="703.944" cy="124.389" r="2.5" fill="#283897"/>
<circle cx="703.944" cy="134.944" r="2.5" fill="#283897"/>
<circle cx="703.944" cy="145.5" r="2.5" fill="#283897"/>
<circle cx="714.5" cy="50.5" r="2.5" fill="#283897"/>
<circle cx="714.5" cy="61.0555" r="2.5" fill="#283897"/>
<circle cx="714.5" cy="71.6111" r="2.5" fill="#283897"/>
<circle cx="714.5" cy="82.1667" r="2.5" fill="#283897"/>
<circle cx="714.5" cy="92.7222" r="2.5" fill="#283897"/>
<circle cx="714.5" cy="103.278" r="2.5" fill="#283897"/>
<circle cx="714.5" cy="113.833" r="2.5" fill="#283897"/>
<circle cx="714.5" cy="124.389" r="2.5" fill="#283897"/>
<circle cx="714.5" cy="134.944" r="2.5" fill="#283897"/>
<circle cx="714.5" cy="145.5" r="2.5" fill="#283897"/>
<circle cx="619.5" cy="597.5" r="2.5" fill="#283897"/>
<circle cx="619.5" cy="608.056" r="2.5" fill="#283897"/>
<circle cx="619.5" cy="618.611" r="2.5" fill="#283897"/>
<circle cx="619.5" cy="629.167" r="2.5" fill="#283897"/>
<circle cx="619.5" cy="639.722" r="2.5" fill="#283897"/>
<circle cx="619.5" cy="650.278" r="2.5" fill="#283897"/>
<circle cx="619.5" cy="660.833" r="2.5" fill="#283897"/>
<circle cx="619.5" cy="671.389" r="2.5" fill="#283897"/>
<circle cx="619.5" cy="681.944" r="2.5" fill="#283897"/>
<circle cx="619.5" cy="692.5" r="2.5" fill="#283897"/>
<circle cx="630.056" cy="597.5" r="2.5" fill="#283897"/>
<circle cx="630.056" cy="608.056" r="2.5" fill="#283897"/>
<circle cx="630.056" cy="618.611" r="2.5" fill="#283897"/>
<circle cx="630.056" cy="629.167" r="2.5" fill="#283897"/>
<circle cx="630.056" cy="639.722" r="2.5" fill="#283897"/>
<circle cx="630.056" cy="650.278" r="2.5" fill="#283897"/>
<circle cx="630.056" cy="660.833" r="2.5" fill="#283897"/>
<circle cx="630.056" cy="671.389" r="2.5" fill="#283897"/>
<circle cx="630.056" cy="681.944" r="2.5" fill="#283897"/>
<circle cx="630.056" cy="692.5" r="2.5" fill="#283897"/>
<circle cx="640.611" cy="597.5" r="2.5" fill="#283897"/>
<circle cx="640.611" cy="608.056" r="2.5" fill="#283897"/>
<circle cx="640.611" cy="618.611" r="2.5" fill="#283897"/>
<circle cx="640.611" cy="629.167" r="2.5" fill="#283897"/>
<circle cx="640.611" cy="639.722" r="2.5" fill="#283897"/>
<circle cx="640.611" cy="650.278" r="2.5" fill="#283897"/>
<circle cx="640.611" cy="660.833" r="2.5" fill="#283897"/>
<circle cx="640.611" cy="671.389" r="2.5" fill="#283897"/>
<circle cx="640.611" cy="681.944" r="2.5" fill="#283897"/>
<circle cx="640.611" cy="692.5" r="2.5" fill="#283897"/>
<circle cx="651.167" cy="597.5" r="2.5" fill="#283897"/>
<circle cx="651.167" cy="608.056" r="2.5" fill="#283897"/>
<circle cx="651.167" cy="618.611" r="2.5" fill="#283897"/>
<circle cx="651.167" cy="629.167" r="2.5" fill="#283897"/>
<circle cx="651.167" cy="639.722" r="2.5" fill="#283897"/>
<circle cx="651.167" cy="650.278" r="2.5" fill="#283897"/>
<circle cx="651.167" cy="660.833" r="2.5" fill="#283897"/>
<circle cx="651.167" cy="671.389" r="2.5" fill="#283897"/>
<circle cx="651.167" cy="681.944" r="2.5" fill="#283897"/>
<circle cx="651.167" cy="692.5" r="2.5" fill="#283897"/>
<circle cx="661.722" cy="597.5" r="2.5" fill="#283897"/>
<circle cx="661.722" cy="608.056" r="2.5" fill="#283897"/>
<circle cx="661.722" cy="618.611" r="2.5" fill="#283897"/>
<circle cx="661.722" cy="629.167" r="2.5" fill="#283897"/>
<circle cx="661.722" cy="639.722" r="2.5" fill="#283897"/>
<circle cx="661.722" cy="650.278" r="2.5" fill="#283897"/>
<circle cx="661.722" cy="660.833" r="2.5" fill="#283897"/>
<circle cx="661.722" cy="671.389" r="2.5" fill="#283897"/>
<circle cx="661.722" cy="681.944" r="2.5" fill="#283897"/>
<circle cx="661.722" cy="692.5" r="2.5" fill="#283897"/>
<circle cx="672.278" cy="597.5" r="2.5" fill="#283897"/>
<circle cx="672.278" cy="608.056" r="2.5" fill="#283897"/>
<circle cx="672.278" cy="618.611" r="2.5" fill="#283897"/>
<circle cx="672.278" cy="629.167" r="2.5" fill="#283897"/>
<circle cx="672.278" cy="639.722" r="2.5" fill="#283897"/>
<circle cx="672.278" cy="650.278" r="2.5" fill="#283897"/>
<circle cx="672.278" cy="660.833" r="2.5" fill="#283897"/>
<circle cx="672.278" cy="671.389" r="2.5" fill="#283897"/>
<circle cx="672.278" cy="681.944" r="2.5" fill="#283897"/>
<circle cx="672.278" cy="692.5" r="2.5" fill="#283897"/>
<circle cx="682.833" cy="597.5" r="2.5" fill="#283897"/>
<circle cx="682.833" cy="608.056" r="2.5" fill="#283897"/>
<circle cx="682.833" cy="618.611" r="2.5" fill="#283897"/>
<circle cx="682.833" cy="629.167" r="2.5" fill="#283897"/>
<circle cx="682.833" cy="639.722" r="2.5" fill="#283897"/>
<circle cx="682.833" cy="650.278" r="2.5" fill="#283897"/>
<circle cx="682.833" cy="660.833" r="2.5" fill="#283897"/>
<circle cx="682.833" cy="671.389" r="2.5" fill="#283897"/>
<circle cx="682.833" cy="681.944" r="2.5" fill="#283897"/>
<circle cx="682.833" cy="692.5" r="2.5" fill="#283897"/>
<circle cx="693.389" cy="597.5" r="2.5" fill="#283897"/>
<circle cx="693.389" cy="608.056" r="2.5" fill="#283897"/>
<circle cx="693.389" cy="618.611" r="2.5" fill="#283897"/>
<circle cx="693.389" cy="629.167" r="2.5" fill="#283897"/>
<circle cx="693.389" cy="639.722" r="2.5" fill="#283897"/>
<circle cx="693.389" cy="650.278" r="2.5" fill="#283897"/>
<circle cx="693.389" cy="660.833" r="2.5" fill="#283897"/>
<circle cx="693.389" cy="671.389" r="2.5" fill="#283897"/>
<circle cx="693.389" cy="681.944" r="2.5" fill="#283897"/>
<circle cx="693.389" cy="692.5" r="2.5" fill="#283897"/>
<circle cx="703.944" cy="597.5" r="2.5" fill="#283897"/>
<circle cx="703.944" cy="608.056" r="2.5" fill="#283897"/>
<circle cx="703.944" cy="618.611" r="2.5" fill="#283897"/>
<circle cx="703.944" cy="629.167" r="2.5" fill="#283897"/>
<circle cx="703.944" cy="639.722" r="2.5" fill="#283897"/>
<circle cx="703.944" cy="650.278" r="2.5" fill="#283897"/>
<circle cx="703.944" cy="660.833" r="2.5" fill="#283897"/>
<circle cx="703.944" cy="671.389" r="2.5" fill="#283897"/>
<circle cx="703.944" cy="681.944" r="2.5" fill="#283897"/>
<circle cx="703.944" cy="692.5" r="2.5" fill="#283897"/>
<circle cx="714.5" cy="597.5" r="2.5" fill="#283897"/>
<circle cx="714.5" cy="608.056" r="2.5" fill="#283897"/>
<circle cx="714.5" cy="618.611" r="2.5" fill="#283897"/>
<circle cx="714.5" cy="629.167" r="2.5" fill="#283897"/>
<circle cx="714.5" cy="639.722" r="2.5" fill="#283897"/>
<circle cx="714.5" cy="650.278" r="2.5" fill="#283897"/>
<circle cx="714.5" cy="660.833" r="2.5" fill="#283897"/>
<circle cx="714.5" cy="671.389" r="2.5" fill="#283897"/>
<circle cx="714.5" cy="681.944" r="2.5" fill="#283897"/>
<circle cx="714.5" cy="692.5" r="2.5" fill="#283897"/>
<path d="M0 0H523C556.137 0 583 26.8629 583 60V696C583 729.137 556.137 756 523 756H0V0Z" fill="#283897"/>
<g filter="url(#filter0_d_2791_1714)">
<rect x="157" y="99" width="520" height="556" rx="10" fill="#E7E9F7"/>
<path d="M193.17 526.973L349.198 526.163L390.788 526.151L404.567 526.146L446.236 526.134L636.608 526.082C636.608 526.082 680.151 470.245 633.639 417.214C585.415 362.23 561.966 407.009 547.142 329.612C509.83 134.789 140.922 248.18 237.683 413.963C272.524 473.656 169.102 441.929 193.17 526.973Z" fill="#EBF3FA"/>
<path d="M336.712 486.313L335.868 485.85C334.967 485.356 334.636 484.222 335.129 483.323L339.006 476.244C339.5 475.343 340.634 475.011 341.533 475.505L342.742 476.166C342.918 476.263 342.983 476.484 342.887 476.662C342.79 476.838 342.569 476.903 342.391 476.807L341.183 476.145C340.634 475.845 339.945 476.047 339.645 476.596L335.768 483.675C335.468 484.222 335.67 484.913 336.219 485.213L337.063 485.676C337.612 485.976 338.3 485.774 338.601 485.225L341.174 480.526C341.271 480.35 341.492 480.285 341.67 480.381C341.846 480.478 341.911 480.699 341.815 480.877L339.241 485.576C338.746 486.475 337.613 486.806 336.712 486.313Z" fill="#AFCDFB"/>
<path d="M333.115 493.745L331.603 492.917C330.199 492.149 329.726 490.298 330.55 488.795L336.377 478.153C336.474 477.977 336.695 477.911 336.873 478.008C337.051 478.105 337.114 478.326 337.018 478.503L331.19 489.147C330.56 490.298 330.902 491.705 331.953 492.28L333.465 493.109C334.516 493.685 335.885 493.216 336.517 492.064L343.156 479.941C343.786 478.79 343.444 477.383 342.393 476.808C342.217 476.712 342.151 476.491 342.248 476.313C342.345 476.135 342.566 476.071 342.743 476.168C344.147 476.938 344.62 478.786 343.796 480.29L337.159 492.413C336.332 493.916 334.52 494.515 333.115 493.745Z" fill="#AFCDFB"/>
<path opacity="0.6" d="M478.813 446.942H293.164C288.6 446.942 284.901 443.243 284.901 438.679V282.86C284.901 278.296 288.6 274.597 293.164 274.597H478.813C483.377 274.597 487.076 278.296 487.076 282.86V438.679C487.078 443.243 483.377 446.942 478.813 446.942Z" fill="white"/>
<path d="M487.078 293.721H284.901V280.766C284.901 277.359 287.663 274.597 291.07 274.597H480.908C484.316 274.597 487.078 277.359 487.078 280.766V293.721Z" fill="#699DEE"/>
<path d="M295.363 286.332C296.627 286.332 297.651 285.308 297.651 284.044C297.651 282.781 296.627 281.757 295.363 281.757C294.1 281.757 293.076 282.781 293.076 284.044C293.076 285.308 294.1 286.332 295.363 286.332Z" fill="#DDE7FE"/>
<path d="M304.959 286.332C306.222 286.332 307.246 285.308 307.246 284.044C307.246 282.781 306.222 281.757 304.959 281.757C303.696 281.757 302.672 282.781 302.672 284.044C302.672 285.308 303.696 286.332 304.959 286.332Z" fill="#DDE7FE"/>
<path d="M314.555 286.332C315.818 286.332 316.842 285.308 316.842 284.044C316.842 282.781 315.818 281.757 314.555 281.757C313.292 281.757 312.268 282.781 312.268 284.044C312.268 285.308 313.292 286.332 314.555 286.332Z" fill="#DDE7FE"/>
<path opacity="0.5" d="M358.234 308.896H300.923V366.207H358.234V308.896Z" fill="#CDE0FB"/>
<path opacity="0.5" d="M419.403 313.167H373.818C372.622 313.167 371.652 312.197 371.652 311C371.652 309.804 372.622 308.834 373.818 308.834H419.403C420.599 308.834 421.569 309.804 421.569 311C421.568 312.198 420.599 313.167 419.403 313.167Z" fill="#7C9AF2"/>
<path opacity="0.5" d="M473.914 310.262H428.329C427.133 310.262 426.163 309.291 426.163 308.095C426.163 306.899 427.133 305.929 428.329 305.929H473.914C475.11 305.929 476.08 306.899 476.08 308.095C476.08 309.293 475.11 310.262 473.914 310.262Z" fill="#7C9AF2"/>
<g opacity="0.3">
<path d="M428.426 329.84H373.053C372.278 329.84 371.65 329.212 371.65 328.436C371.65 327.661 372.278 327.033 373.053 327.033H428.426C429.201 327.033 429.829 327.661 429.829 328.436C429.829 329.212 429.201 329.84 428.426 329.84Z" fill="#BDD1F9"/>
<path d="M449.476 329.84H434.859C434.084 329.84 433.456 329.212 433.456 328.436C433.456 327.661 434.084 327.033 434.859 327.033H449.476C450.251 327.033 450.88 327.661 450.88 328.436C450.88 329.212 450.251 329.84 449.476 329.84Z" fill="#BDD1F9"/>
<path d="M393.947 338.547H373.055C372.28 338.547 371.652 337.918 371.652 337.143C371.652 336.368 372.28 335.74 373.055 335.74H393.947C394.722 335.74 395.35 336.368 395.35 337.143C395.35 337.918 394.722 338.547 393.947 338.547Z" fill="#BDD1F9"/>
<path d="M427.787 338.547H399.158C398.383 338.547 397.755 337.918 397.755 337.143C397.755 336.368 398.383 335.74 399.158 335.74H427.787C428.562 335.74 429.19 336.368 429.19 337.143C429.19 337.918 428.562 338.547 427.787 338.547Z" fill="#BDD1F9"/>
<path d="M449.476 338.547H434.859C434.084 338.547 433.456 337.918 433.456 337.143C433.456 336.368 434.084 335.74 434.859 335.74H449.476C450.251 335.74 450.88 336.368 450.88 337.143C450.88 337.918 450.251 338.547 449.476 338.547Z" fill="#BDD1F9"/>
<path d="M401.402 346.075H373.053C372.278 346.075 371.65 345.446 371.65 344.671C371.65 343.896 372.278 343.268 373.053 343.268H401.402C402.177 343.268 402.806 343.896 402.806 344.671C402.808 345.446 402.179 346.075 401.402 346.075Z" fill="#BDD1F9"/>
<path d="M455.537 346.075H409.172C408.397 346.075 407.769 345.446 407.769 344.671C407.769 343.896 408.397 343.268 409.172 343.268H455.537C456.312 343.268 456.94 343.896 456.94 344.671C456.94 345.446 456.312 346.075 455.537 346.075Z" fill="#BDD1F9"/>
</g>
<g opacity="0.3">
<path d="M428.426 357.498H373.053C372.278 357.498 371.65 356.87 371.65 356.095C371.65 355.32 372.278 354.692 373.053 354.692H428.426C429.201 354.692 429.829 355.32 429.829 356.095C429.829 356.87 429.201 357.498 428.426 357.498Z" fill="#BDD1F9"/>
<path d="M449.476 357.498H434.859C434.084 357.498 433.456 356.87 433.456 356.095C433.456 355.32 434.084 354.692 434.859 354.692H449.476C450.251 354.692 450.88 355.32 450.88 356.095C450.88 356.87 450.251 357.498 449.476 357.498Z" fill="#BDD1F9"/>
<path d="M393.947 366.205H373.055C372.28 366.205 371.652 365.577 371.652 364.802C371.652 364.027 372.28 363.398 373.055 363.398H393.947C394.722 363.398 395.35 364.027 395.35 364.802C395.35 365.577 394.722 366.205 393.947 366.205Z" fill="#BDD1F9"/>
<path d="M427.787 366.205H399.158C398.383 366.205 397.755 365.577 397.755 364.802C397.755 364.027 398.383 363.398 399.158 363.398H427.787C428.562 363.398 429.19 364.027 429.19 364.802C429.19 365.577 428.562 366.205 427.787 366.205Z" fill="#BDD1F9"/>
</g>
<path d="M326.619 317.439H332.538L348.53 354.041H341.78L338.095 345.267H320.911L317.172 354.041H310.63L326.619 317.439ZM335.756 339.607L329.474 325.07L323.245 339.607H335.756Z" fill="#BDD1F9"/>
<path d="M332.937 377.75H300.923V383.93H332.937V377.75Z" fill="#F99746"/>
<path d="M332.937 383.931H300.923V390.111H332.937V383.931Z" fill="#ED7D2B"/>
<path d="M332.937 390.111H300.923V396.291H332.937V390.111Z" fill="#474FEA"/>
<path d="M356.525 381.249H338.911C338.174 381.249 337.577 380.652 337.577 379.914C337.577 379.177 338.174 378.58 338.911 378.58H356.525C357.262 378.58 357.86 379.177 357.86 379.914C357.86 380.652 357.262 381.249 356.525 381.249Z" fill="#BDD1F9"/>
<path d="M350.591 385.953H338.91C338.173 385.953 337.575 385.355 337.575 384.618C337.575 383.881 338.173 383.284 338.91 383.284H350.591C351.328 383.284 351.925 383.881 351.925 384.618C351.925 385.355 351.328 385.953 350.591 385.953Z" fill="#BDD1F9"/>
<path d="M332.937 409.705H300.923V422.333H332.937V409.705Z" fill="#F99746"/>
<path d="M332.937 419.216H300.923V428.247H332.937V419.216Z" fill="#B5453C"/>
<path d="M300.923 409.705L312.408 419.352L300.923 428.247V409.705Z" fill="#474FEA"/>
<path d="M356.525 413.204H338.911C338.174 413.204 337.577 412.607 337.577 411.869C337.577 411.132 338.174 410.535 338.911 410.535H356.525C357.262 410.535 357.86 411.132 357.86 411.869C357.86 412.607 357.262 413.204 356.525 413.204Z" fill="#BDD1F9"/>
<path d="M350.591 417.909H338.91C338.173 417.909 337.575 417.312 337.575 416.575C337.575 415.838 338.173 415.241 338.91 415.241H350.591C351.328 415.241 351.925 415.838 351.925 416.575C351.925 417.312 351.328 417.909 350.591 417.909Z" fill="#BDD1F9"/>
<path d="M489.118 290.205C489.118 290.205 489.952 300.143 487.687 299.993C485.424 299.842 480.953 295.468 471.932 296.179C462.911 296.891 451.874 298.865 445.202 287.058C438.531 275.251 453.735 271.854 453.735 271.854L489.118 290.205Z" fill="#233862"/>
<path d="M469.942 289.477L515.397 293.214L516.342 291.192L472.764 259.025L428.745 253.881L427.899 255.692L469.942 289.477Z" fill="#2B478B"/>
<path d="M500.877 323.708C500.609 322.773 499.632 322.231 498.696 322.498C497.761 322.766 497.221 323.741 497.488 324.679C497.756 325.614 498.731 326.156 499.667 325.889C500.602 325.619 501.144 324.644 500.877 323.708Z" fill="#F99746"/>
<path d="M499.361 324.199C501.184 324.057 501.61 340.646 501.61 340.646C501.61 340.646 500.421 341.205 499.838 341.074C499.253 340.943 498.956 338.702 498.956 338.702L498.899 341.051C498.899 341.051 496.9 341.12 496.206 340.634C496.206 340.632 496.477 324.423 499.361 324.199Z" fill="#F99746"/>
<path d="M499.955 324.572L499.625 288.329L499.39 288.153L475.649 270.591L474.796 271.744L498.301 289.133L498.833 324.509L499.955 324.572Z" fill="#F99746"/>
<path d="M530.588 495.558H430.732V457.618H530.921C539.019 457.618 545.583 464.183 545.583 472.28V480.563C545.583 488.845 538.87 495.558 530.588 495.558Z" fill="#FCECDB"/>
<path d="M631.243 473.228V478.937C631.243 481.987 630.477 484.842 629.137 487.298C626.446 492.239 621.442 495.558 615.713 495.558H427.656C426.411 495.558 425.403 494.479 425.403 493.148V492.294C425.403 490.965 426.411 489.884 427.656 489.884H542.295C542.908 489.085 543.448 488.218 543.904 487.296C544.977 485.132 545.583 482.663 545.583 480.043V472.788C545.583 471.454 545.423 470.159 545.119 468.926C544.606 466.838 543.686 464.925 542.461 463.292H427.656C426.411 463.292 425.403 462.213 425.403 460.881V460.028C425.403 458.695 426.411 457.617 427.656 457.617H616.66C623.32 457.617 628.939 462.396 630.682 468.925C631.048 470.294 631.243 471.737 631.243 473.228Z" fill="#699DEE"/>
<path d="M630.68 468.926H545.119C544.606 466.838 543.686 464.925 542.461 463.292H427.656C426.411 463.292 425.403 462.213 425.403 460.881V460.028C425.403 458.695 426.411 457.617 427.656 457.617H616.66C623.32 457.618 628.937 462.396 630.68 468.926Z" fill="#548EE2"/>
<path d="M430.732 476.587L444.655 477.226L430.732 477.609V476.587Z" fill="#F4D2B8"/>
<path d="M430.732 482.541L463.859 483.178L430.732 483.563V482.541Z" fill="#F4D2B8"/>
<path d="M416.141 524.988H514.165V495.477H415.276C407.931 495.477 401.977 501.43 401.977 508.775V510.826C401.979 518.647 408.319 524.988 416.141 524.988Z" fill="#F99746"/>
<path d="M509.442 524.988H621.162V495.477H509.135C501.667 495.477 495.614 501.531 495.614 508.998V511.161C495.615 518.797 501.806 524.988 509.442 524.988Z" fill="#FCECDB"/>
<path d="M488.234 524.988H624.934C626.068 524.988 626.988 524.067 626.988 522.933V522.626C626.988 521.492 626.068 520.572 624.934 520.572H488.234C487.1 520.572 486.18 521.492 486.18 522.626V522.933C486.18 524.069 487.1 524.988 488.234 524.988Z" fill="#F99746"/>
<path d="M488.234 499.891H624.934C626.068 499.891 626.988 498.971 626.988 497.837V497.529C626.988 496.395 626.068 495.475 624.934 495.475H488.234C487.1 495.475 486.18 496.395 486.18 497.529V497.837C486.18 498.972 487.1 499.891 488.234 499.891Z" fill="#F99746"/>
<path d="M621.162 510.234L605.941 510.729L621.162 511.028V510.234Z" fill="#F4D2B8"/>
<path d="M621.162 503.441L584.95 503.939L621.162 504.237V503.441Z" fill="#F4D2B8"/>
<path d="M585.323 503.838C585.323 503.838 586.875 505.107 587.389 507.191C587.481 507.555 587.538 507.945 587.55 508.356C587.636 511.125 587.55 517.392 587.55 517.392L592.131 514.259L596.7 517.392V508.898C596.7 507.293 596.308 505.729 595.58 504.707C595.228 504.211 594.8 503.838 594.315 503.838H585.323Z" fill="#699DEE"/>
<path d="M585.323 503.838C585.323 503.838 586.875 505.107 587.389 507.191L596.571 507.315C596.571 507.315 596.21 504.33 594.316 503.838H585.323Z" fill="#568CDB"/>
<path d="M502.015 457.698H405.535V414.341H502.367C510.928 414.341 517.869 421.282 517.869 429.844V441.846C517.868 450.6 510.77 457.698 502.015 457.698Z" fill="#FCECDB"/>
<path d="M517.923 431.163V440.495C517.899 444.48 516.052 447.938 513.338 449.787C512.002 450.693 510.457 451.212 508.817 451.212H402.58C401.335 451.212 400.325 452.417 400.325 453.905V455.007C400.325 456.493 401.335 457.699 402.58 457.699H586.107C591.373 457.699 596.027 454.573 598.837 449.788C600.61 446.773 601.651 443.101 601.651 439.136V431.774C601.651 429.057 601.132 426.485 600.201 424.194C597.841 418.365 592.842 414.345 587.056 414.345H402.58C401.335 414.345 400.325 415.548 400.325 417.034V418.135C400.325 419.622 401.335 420.828 402.58 420.828H509.142C511.688 420.828 513.994 422.123 515.605 424.194C517.029 426.028 517.909 428.472 517.923 431.163Z" fill="#AFCDFB"/>
<path d="M400.324 453.905V455.007C400.324 456.493 401.334 457.699 402.578 457.699H586.105C591.372 457.699 596.026 454.573 598.836 449.788H513.338C512.002 450.695 510.457 451.214 508.817 451.214H402.58C401.334 451.212 400.324 452.417 400.324 453.905Z" fill="#A4C4F4"/>
<path d="M405.535 436.019L419.155 436.747L405.535 437.187V436.019Z" fill="#F4D2B8"/>
<path d="M405.535 426.041L437.935 426.77L405.535 427.208V426.041Z" fill="#F4D2B8"/>
<path d="M437.602 426.625C437.602 426.625 435.463 427.999 434.756 430.26C434.631 430.655 434.55 431.078 434.533 431.524C434.416 434.526 434.533 441.322 434.533 441.322L428.22 437.924L421.923 441.322V432.112C421.923 430.371 422.464 428.677 423.467 427.567C423.953 427.03 424.544 426.625 425.21 426.625H437.602Z" fill="#F99746"/>
<path d="M437.602 426.625C437.602 426.625 435.463 427.999 434.756 430.26L422.105 430.395C422.105 430.395 422.602 427.158 425.212 426.625H437.602Z" fill="#ED7D2B"/>
<path d="M276.332 453.862C276.332 453.862 296.109 462.479 299.698 462.322C303.288 462.165 325.408 455.585 325.408 455.585L324.845 459.389C324.845 459.389 307.775 469.208 301.806 469.764C295.93 470.313 275.839 464.49 273.898 463.261C271.958 462.032 270.695 455.107 276.332 453.862Z" fill="#ED985F"/>
<path d="M273.362 422.166C273.362 422.166 266.065 420.78 262.433 423.433C255.851 428.241 255.497 444.812 253.031 447.28C250.564 449.749 244.617 448.696 244.087 461.469C243.557 474.243 246.454 475.31 243.005 481.011C239.554 486.713 244.465 492.42 244.465 492.42C244.465 492.42 242.454 489.273 243.316 487C243.316 487 244.153 492.014 247.338 493.19C250.523 494.365 250.994 495.227 251.503 496.951C251.503 496.951 278.678 483.026 278.708 473.15C278.737 463.275 284.055 453.491 281.444 449.21C281.444 449.21 282.607 451.042 282.749 453.079C282.749 453.079 284.316 450.077 281.599 447.282C278.884 444.487 284.785 438.703 283.91 432.005C283.311 427.405 280.085 422.366 273.362 422.166Z" fill="#233862"/>
<path d="M278.735 463.273C276.999 464.478 274.82 465.472 272.086 466.102C261.838 468.471 257.911 459.809 256.435 453.862C257.833 453.063 259.147 452.887 259.906 452.795C260.647 452.707 261.425 452.65 262.071 452.618C263.222 451.736 264.936 448.13 265.316 442.528L265.797 442.658L273.874 444.869C273.874 444.869 273.505 447.436 273.324 449.863C273.184 451.761 273.161 453.576 273.52 454.021C274.15 454.157 274.528 454.247 274.528 454.247C274.528 454.247 274.528 454.251 274.532 454.254C274.644 454.432 276.987 458.286 278.735 463.273Z" fill="#FFB27D"/>
<path d="M273.878 444.871C273.878 444.871 273.507 447.436 273.327 449.864C268.751 449.407 266.628 445.05 265.801 442.659L273.878 444.871Z" fill="#ED985F"/>
<path d="M275.243 447.28C275.243 447.28 264.382 446.681 264.858 439.923C265.337 433.165 264.256 428.536 271.211 428.634C278.166 428.733 279.329 431.405 279.719 433.699C280.109 435.993 278.081 447.261 275.243 447.28Z" fill="#FFB27D"/>
<path d="M279.666 429.918C278.134 427.766 276.835 428.121 276.082 428.681C270.386 424.995 266.22 429.54 266.22 429.54C265.147 434.337 261.451 436.865 261.451 436.865C261.451 436.865 263.341 438.228 267.983 437.382C269.402 437.123 270.715 436.224 271.858 435.099C269.792 438.059 267.121 440.106 267.121 440.106C272.747 437.98 275.476 430.564 275.752 429.779C276.372 430.421 277.586 431.807 277.891 433.101C278.309 434.86 280.109 437.612 281.15 437.565C281.15 437.565 281.963 433.146 279.666 429.918Z" fill="#233862"/>
<path d="M253.343 485.356C252.363 480.342 249.164 460.309 252.363 453.864C253.511 451.547 258.018 451.338 262.963 451.542C264.501 452.535 270.365 456.289 272.773 455.821C272.799 455.816 272.845 455.806 272.908 455.79C274.042 455.507 274.47 454.71 273.524 454.023C273.522 454.021 275.973 453.786 279.015 454.359C280.732 454.682 285.365 457.08 285.365 457.08C285.365 457.08 283.032 461.295 279.591 462.75C280.177 467.984 279.307 470.292 273.878 482.38C269.29 492.598 274.497 501.796 274.497 501.796C274.497 501.796 247.49 523.51 247.339 512.454C247.226 504.13 254.596 491.764 253.343 485.356Z" fill="#F9DDBF"/>
<path d="M275.835 525.407C277.304 525.241 278.626 524.437 279.448 523.208C279.578 523.013 279.717 522.804 279.866 522.58C282.94 517.926 284.136 503.674 291.051 488.491C292.736 484.795 298.781 484.131 300.43 479.952C300.43 479.952 304.488 466.408 292.664 466.008C280.839 465.609 260.997 503.692 260.685 507.686C260.379 511.554 252.865 527.998 275.835 525.407Z" fill="#DD6D22"/>
<path d="M322.829 525.095H306C306 525.095 305.37 522.41 306.477 520.584C307.455 518.968 307.079 518.047 306.356 516.711C307.119 517.023 308.104 517.306 309.19 517.244C310.029 517.196 310.915 516.816 311.693 516.364C312.418 517.189 315.518 520.705 316.488 521.401C317.586 522.191 322.49 521.91 322.829 525.095Z" fill="#233862"/>
<path d="M300.813 469.923C301.826 477.519 305.784 501.498 312.765 513.196C315.016 516.968 307.095 519.082 307.051 519.07C305.99 518.792 304.219 517.099 303.404 516.364C297.737 511.256 286.232 496.794 286.232 485.199C286.232 479.546 286.132 468.749 290.244 466.004C292.774 464.314 300.411 466.903 300.813 469.923Z" fill="#ED7D2B"/>
<path d="M265.799 525.095C265.799 525.095 266.422 524.226 267.51 522.578C268.804 520.617 270.235 516.761 271.974 511.815C273.8 506.624 275.965 500.238 278.671 493.592C279.507 491.541 280.394 489.465 281.337 487.391C283.021 483.696 287.654 484.207 289.303 480.028C289.303 480.028 295.735 465.541 283.912 465.143C272.088 464.744 249.62 503.894 248.329 507.686C246.915 511.836 240.019 529.072 265.799 525.095Z" fill="#F99746"/>
<path d="M310.476 525.095H293.648C293.648 525.095 293.019 522.41 294.124 520.584C295.103 518.968 294.727 518.047 294.003 516.711C294.766 517.023 295.752 517.306 296.838 517.244C297.677 517.196 298.562 516.816 299.341 516.364C300.066 517.189 303.166 520.705 304.136 521.401C305.232 522.191 310.136 521.91 310.476 525.095Z" fill="#2B478B"/>
<path d="M271.974 511.815C273.8 506.625 275.965 500.238 278.671 493.592C277.965 488.557 276.439 484.153 273.876 482.377C273.876 482.379 267.658 501.644 271.974 511.815Z" fill="#ED7D2B"/>
<path d="M290.989 469.384C292.003 476.981 293.43 501.498 300.411 513.196C302.662 516.968 294.74 519.082 294.697 519.07C293.635 518.792 291.864 517.099 291.05 516.364C285.383 511.256 273.878 496.794 273.878 485.199C273.878 479.546 280.513 469.201 284.623 466.456C287.155 464.766 290.587 466.365 290.989 469.384Z" fill="#F99746"/>
<path d="M277.277 443.393C277.277 443.393 276.249 442.987 273.36 443.22C273.36 443.22 273.513 444.347 275.644 444.46C276.852 444.524 277.277 443.393 277.277 443.393Z" fill="white"/>
<path d="M327.519 447.624L324.03 441.328L316.483 462.391L320.935 467.171L327.519 447.624Z" fill="#163560"/>
<path d="M309.302 451.311L302.286 471.355L320.935 467.171L327.519 447.624L309.302 451.311Z" fill="#1C468A"/>
<path d="M302.658 470.344L302.33 469.772L308.969 450.803L309.302 451.311L302.658 470.344Z" fill="#EFDECE"/>
<path d="M308.969 450.803L326.65 447.363L327.519 447.624L309.302 451.311L308.969 450.803Z" fill="#FCECDB"/>
<path d="M327.519 447.624L323.747 441.636L321.341 448.397L326.65 447.363L327.519 447.624Z" fill="#EFDECE"/>
<path d="M314.686 454.214C314.08 454.097 312.779 453.607 311.462 453.244C311.855 452.939 312.292 452.564 312.415 452.179C312.649 451.437 312.806 451.199 312.023 451.433C311.239 451.668 308.498 452.927 308.498 452.927C308.498 452.927 308.503 452.93 308.505 452.93C306.948 453.386 305.512 455.587 305.512 455.587C305.512 455.587 286.23 462.365 283.91 462.481C280.321 462.661 256.435 453.864 256.435 453.864C250.797 455.108 252.062 462.034 254.002 463.263C255.943 464.492 273.13 470.744 283.316 470.862C288.476 470.922 307.243 458.859 307.243 458.859C307.243 458.859 309.437 457.857 311.16 458.171C312.882 458.485 316.878 458.171 317.74 456.76C318.603 455.35 315.705 454.409 314.686 454.214Z" fill="#FFB27D"/>
<path d="M268.742 458.2C268.742 458.2 266.605 464.963 259.269 466.501C259.269 466.501 247.153 462.769 253.186 454.515C253.186 454.516 259.15 450.084 268.742 458.2Z" fill="#F9DDBF"/>
<path d="M327.206 454.724C327.21 454.537 327.191 454.352 327.141 454.175C327.141 454.175 325.413 451.44 324.847 451.33C323.122 450.99 323.122 453.26 323.488 454.724C323.743 455.744 324.391 456.722 324.916 457.251L324.847 459.389C327.759 457.789 327.206 454.724 327.206 454.724Z" fill="#FFB27D"/>
<path d="M514.448 450.09C517.617 455.697 521.638 457.882 521.638 457.882L538.426 458.002C538.428 458 512.03 445.813 514.448 450.09Z" fill="#233862"/>
<path d="M527.039 493.39C527.472 493.894 527.524 494.455 527.305 495.052C527.305 495.054 527.303 495.059 527.299 495.061C526.89 496.164 525.559 497.391 524.014 498.613C523.818 498.77 523.642 498.914 523.488 499.047C523.448 499.081 523.407 499.116 523.371 499.152C523.339 499.179 523.31 499.207 523.279 499.233C521.836 500.543 522.375 500.85 519.78 503.512C516.823 506.545 514.802 506.587 514.229 506.303C513.744 506.063 514.743 504.45 515.851 502.637C515.905 502.549 515.958 502.461 516.012 502.373C516.159 502.131 516.305 501.888 516.452 501.644C517.75 499.463 517.429 498.432 517.148 495.168C516.92 492.516 513.129 480.333 513.129 480.333L518.762 479.404C518.762 479.404 520.388 489.095 522.243 490.599C523.236 491.4 524.353 491.419 525.309 492.014C525.376 492.056 525.444 492.099 525.508 492.142C526.05 492.508 526.604 492.884 527.039 493.39Z" fill="#FFB27D"/>
<path d="M527.039 493.39C527.472 493.894 527.524 494.455 527.305 495.052C527.305 495.054 527.303 495.059 527.3 495.061C526.801 496.162 525.503 497.383 524.009 498.603C523.814 498.763 523.642 498.91 523.488 499.047C523.448 499.081 523.407 499.116 523.371 499.152C523.34 499.179 523.31 499.207 523.279 499.233C521.836 500.543 522.375 500.85 519.78 503.512C516.823 506.545 514.802 506.587 514.229 506.303C513.744 506.063 514.743 504.45 515.852 502.637C516.425 502.432 519.086 501.372 521.111 498.819C522.894 496.575 524.094 493.685 525.309 492.016C525.377 492.057 525.444 492.1 525.508 492.144C526.05 492.508 526.604 492.884 527.039 493.39Z" fill="#233862"/>
<path d="M481.701 489.556C481.342 491.291 478.868 490.984 476.108 490.288C473.348 489.592 473.999 490.4 470.066 489.938C466.134 489.475 464.952 487.999 464.836 487.412C464.732 486.893 466.678 486.723 468.766 486.497C469.029 486.47 469.293 486.439 469.557 486.409C471.915 486.13 473.65 484.623 475.797 483.39C477.832 482.222 480.889 477.426 480.889 477.426L486.284 477.892C486.284 477.892 483.422 482.175 482.312 484.037C481.659 485.134 481.683 486.589 481.756 487.713C481.794 488.322 481.828 488.945 481.701 489.556Z" fill="#FFB27D"/>
<path d="M476.108 490.288C473.348 489.592 473.999 490.4 470.066 489.938C466.134 489.475 464.952 487.999 464.836 487.412C464.732 486.893 466.678 486.723 468.766 486.497L468.785 486.537C468.785 486.537 471.135 488.227 474.409 488.329C477.08 488.413 479.912 487.668 481.756 487.711C481.794 488.322 481.828 488.947 481.701 489.556C481.342 491.291 478.868 490.984 476.108 490.288Z" fill="#233862"/>
<path d="M502.631 455.19L507.581 468.802L514.044 486.577C514.044 486.577 515.831 486.761 517.547 486.282C519.126 485.838 520.944 484.657 520.944 484.657C520.944 484.657 519.249 465.609 515.914 454.658C515.059 451.848 514.094 449.571 513.022 448.287C507.773 442 502.631 455.19 502.631 455.19Z" fill="#233862"/>
<path d="M507.913 433.662C511.225 432.62 520.645 434.054 530.103 435.976L532.109 432.718L552.576 431.265C552.576 431.265 559.22 446.283 555.459 455.795C554.906 457.194 553.556 457.775 551.716 457.793C551.716 457.794 551.715 457.794 551.715 457.796C551.715 457.796 539.505 458.008 535.552 457.981C525.378 457.908 514.072 450.836 512.605 450.531C510.203 450.034 509.207 454.836 506.767 459.868C504.326 464.901 484.004 482.071 484.004 482.071C484.004 482.071 480.898 482.08 479.619 481.59C478.243 481.063 477.744 480.388 477.744 480.388C477.744 480.388 500.44 436.015 507.913 433.662Z" fill="#2B478B"/>
<path d="M532.426 404.549C539.683 408.61 554.402 417.031 554.48 416.977C554.48 416.977 559.897 419.062 562.993 417.038C568.153 413.663 570.972 404.502 561.635 396.536C556.978 392.562 553.656 391.58 553.196 385.286C552.945 381.872 548.359 370.574 540.6 371.562C539.951 371.644 539.298 371.701 538.646 371.675C537.741 371.639 536.244 371.762 534.705 372.663C530.299 375.243 521.517 402.919 532.426 404.549Z" fill="#233862"/>
<path d="M538.556 401.178C538.523 401.198 542.131 402.458 544.556 401.404C546.838 400.415 548.588 396.684 548.554 396.683C547.52 396.627 546.389 395.714 545.557 389.773L545.115 389.928L537.688 392.541C537.688 392.541 538.207 394.922 538.538 397.188C538.818 399.089 538.963 400.912 538.556 401.178Z" fill="#FFB27D"/>
<path d="M537.689 392.54C537.689 392.54 538.005 394.209 538.445 396.593C542.705 395.857 544.501 392.222 545.117 389.926L537.689 392.54Z" fill="#ED975D"/>
<path d="M536.569 394.893C536.569 394.893 546.715 393.603 545.814 387.297C544.915 380.992 545.618 376.578 539.101 377.134C532.585 377.689 531.672 380.275 531.461 382.454C531.251 384.632 533.905 395.065 536.569 394.893Z" fill="#FFB27D"/>
<path d="M531.856 379.003C531.856 379.003 538.305 384.641 542.716 385.122C547.126 385.604 548.807 384.199 548.807 384.199C548.807 384.199 546.222 382.02 544.68 378.523C544.226 377.493 543.256 376.78 542.134 376.676C538.984 376.383 533.011 376.215 531.856 379.003Z" fill="#233862"/>
<path d="M535.916 378.53C535.916 378.53 533.731 380.614 533.035 382.165C532.366 383.664 532.141 387.254 532.657 388.685C532.657 388.685 529.321 382.084 531.259 378.903C533.313 375.53 535.916 378.53 535.916 378.53Z" fill="#233862"/>
<path d="M529.916 416.049C530.079 436.569 529.885 432.28 532.117 434.244C532.654 434.717 534.173 435.007 536.174 435.154C542.462 435.616 553.53 434.657 553.959 433.497C555.438 429.483 554.423 428.227 555.676 422.076C555.807 421.422 555.968 420.714 556.158 419.943C557.197 415.719 558.189 414.288 554.656 407.464C551.45 401.285 548.112 396.265 547.808 396.443C539.203 401.469 538.542 397.188 538.542 397.188C538.542 397.188 529.835 406.04 529.916 416.049Z" fill="#F9DDBF"/>
<path d="M507.58 468.802L514.042 486.577C514.042 486.577 515.829 486.761 517.545 486.282C519.124 485.838 520.942 484.657 520.942 484.657C520.942 484.657 519.247 465.609 515.912 454.658L507.58 468.802Z" fill="#2B478B"/>
<path d="M538.54 397.187C538.54 397.187 529.713 398.619 528.649 402.408C527.588 406.197 521.337 428.474 521.337 428.474C521.337 428.474 525.815 429.311 527.9 427.255C529.985 425.199 535.242 408.094 535.242 408.094L538.54 397.187Z" fill="#F9DDBF"/>
<path d="M536.172 435.152C542.46 435.615 553.529 434.655 553.957 433.495C555.436 429.482 554.421 428.225 555.674 422.075L552.7 413.508C552.7 413.508 553.135 423.027 550.311 425.51C547.49 427.992 538.787 430.26 537.408 432.342C536.743 433.341 536.303 434.346 536.172 435.152Z" fill="#F2CCAA"/>
<path d="M543.41 431.201C543.41 431.201 537.213 429.775 536.206 430.319C535.202 430.863 532.738 432.851 532.428 433.547C532.117 434.242 534.661 433.032 535.488 432.817C536.023 432.677 537.427 433.176 538.121 433.412C541.043 434.41 542.842 433.92 542.842 433.92L543.41 431.201Z" fill="#FFB27D"/>
<path d="M547.812 396.437C547.812 396.437 556.142 397.011 558.999 401.055C563.021 406.748 570.908 430.947 566.266 434.135C561.041 437.724 542.592 434.917 542.592 434.917C542.592 434.917 541.998 432.04 542.863 430.657C543.727 429.275 557.639 427.127 558.284 426.49C558.93 425.853 550.356 413.929 550.37 412.004C550.385 410.079 547.812 396.437 547.812 396.437Z" fill="#F9DDBF"/>
<path d="M535.894 432.045C535.894 432.045 534.582 433.714 534.154 433.911C533.726 434.108 533.451 434.056 533.451 434.056L534.339 432.485L535.894 432.045Z" fill="#FFB27D"/>
<path d="M536.206 430.319L532.412 432.128C532.412 432.128 532.571 432.392 533.037 432.375C533.503 432.357 534.681 431.936 534.681 431.936L536.206 430.319Z" fill="#FFB27D"/>
<path d="M534.962 436.618L505.051 436.407L496.211 413.969L526.076 414.179L534.962 436.618Z" fill="#F99746"/>
<path d="M504.706 435.534L544.206 435.812L544.199 436.683L505.051 436.407L504.706 435.534Z" fill="#ED7D2B"/>
<path d="M512.68 425.273C512.461 424.484 512.92 423.851 513.706 423.856C514.493 423.861 515.308 424.505 515.529 425.294C515.748 426.083 515.289 426.716 514.503 426.711C513.718 426.706 512.9 426.06 512.68 425.273Z" fill="white"/>
<path d="M353.179 507.226L353.175 525.294L444.058 525.312L444.062 507.244L353.179 507.226Z" fill="#C65447"/>
<path d="M353.175 525.295L339.818 519.581L332.048 516.258L340.001 512.859L353.18 507.227C353.18 507.227 354.939 511.627 354.965 515.763C355.006 522.255 353.175 525.295 353.175 525.295Z" fill="#FCECDB"/>
<path d="M454.626 513.239L454.624 518.951C454.624 522.464 451.774 525.312 448.261 525.312H444.058L444.061 507.244H448.634C451.945 507.246 454.627 509.93 454.626 513.239Z" fill="#FCECDB"/>
<path d="M340.001 512.859C340.332 514.686 340.619 517.482 339.818 519.581L332.048 516.258L340.001 512.859Z" fill="#2B478B"/>
<path d="M372.715 413.157C372.715 413.157 374.343 420.221 379.088 420.221C383.155 420.221 388.736 411.027 388.736 411.027L372.715 413.157Z" fill="#F99746"/>
<path d="M427.195 517.486L424.147 519.581C424.147 519.581 409.484 503.952 405.944 488.973C405.312 486.297 405.057 483.659 405.328 481.156C405.328 481.156 405.114 480.478 404.739 479.278C404.722 479.227 404.706 479.171 404.689 479.118C404.525 478.591 404.328 477.972 404.111 477.271C403.4 475.008 402.423 471.909 401.311 468.383C398.748 460.266 392.887 441.962 390.383 434.349L408.383 427.837C408.383 427.837 410.427 432.499 413.365 445.171C413.817 446.825 414.271 448.654 414.694 450.646C415.174 452.904 415.623 455.371 415.996 458.038C416.627 462.555 417.049 467.637 417.074 473.211C417.085 475.479 417.03 477.83 416.895 480.255C416.797 482.035 417.061 484.405 417.556 487.101C419.824 499.433 427.195 517.486 427.195 517.486Z" fill="#2B478B"/>
<path d="M436.786 525.017H422.232C422.232 525.017 421.688 522.695 422.643 521.116C423.489 519.718 423.164 518.922 422.538 517.765C423.197 518.035 424.05 518.281 424.989 518.226C425.714 518.185 426.48 517.855 427.154 517.465C427.78 518.18 430.463 521.219 431.3 521.82C432.253 522.507 436.492 522.264 436.786 525.017Z" fill="#233862"/>
<path d="M415.996 458.041L404.689 479.12C404.525 478.593 404.328 477.973 404.111 477.273C403.4 475.01 402.423 471.911 401.311 468.384C398.748 460.268 392.887 441.964 390.383 434.351L408.383 427.838C408.383 427.838 410.427 432.501 413.365 445.173C413.817 446.826 414.271 448.656 414.694 450.648C415.176 452.906 415.623 455.374 415.996 458.041Z" fill="#233862"/>
<path d="M390.089 520.462C390.089 520.462 389.081 522.933 390.03 525.017H397.947C397.947 525.017 398.111 523.137 395.238 520.959C393.063 519.308 390.089 520.462 390.089 520.462Z" fill="#233862"/>
<path d="M398.704 359.554C398.71 359.161 398.912 354.911 405.367 354.535C405.367 354.535 402.2 354.99 401.684 356.401C401.684 356.401 403.805 354.623 405.581 355.135C407.356 355.648 408.466 358.71 408.5 359.725C408.535 360.74 407.636 364.037 406.524 364.341C406.103 364.457 405.614 364.439 405.171 364.375C405.48 364.833 405.783 365.339 406.075 365.903C408.78 371.133 406.446 377.294 404.251 376.775C402.842 376.441 401.986 378.882 401.986 378.882L388.439 367.232C388.437 367.232 393.184 356.777 398.704 359.554Z" fill="#2C3A64"/>
<path d="M390.189 394.951C391.691 395.994 393.574 396.852 395.939 397.397C404.801 399.444 408.198 391.955 409.474 386.812C408.266 386.12 407.128 385.968 406.472 385.891C405.832 385.815 405.159 385.765 404.599 385.737C403.603 384.974 402.121 381.855 401.794 377.011L401.377 377.123L394.392 379.034C394.392 379.034 394.712 381.254 394.869 383.353C394.99 384.995 395.009 386.565 394.698 386.949C394.153 387.066 393.826 387.144 393.826 387.144C393.826 387.144 393.826 387.145 393.823 387.151C393.726 387.308 391.701 390.639 390.189 394.951Z" fill="#FFB27D"/>
<path d="M394.391 379.038C394.391 379.038 394.712 381.256 394.867 383.357C398.824 382.961 400.66 379.193 401.375 377.127L394.391 379.038Z" fill="#ED985F"/>
<path d="M394.31 382.371C394.31 382.371 403.42 380.03 401.875 374.379C400.33 368.727 400.465 364.619 394.582 365.876C388.699 367.13 388.164 369.595 388.221 371.606C388.278 373.617 391.9 382.833 394.31 382.371Z" fill="#FFB27D"/>
<path d="M387.627 368.391C388.563 366.305 389.725 366.388 390.458 366.737C394.667 362.649 398.968 365.803 398.968 365.803C400.688 369.69 404.249 371.209 404.249 371.209C404.249 371.209 402.877 372.685 398.796 372.751C397.55 372.772 396.283 372.23 395.124 371.468C397.377 373.629 399.987 374.915 399.987 374.915C394.857 374.061 391.29 368.232 390.924 367.612C390.507 368.261 389.713 369.64 389.671 370.792C389.614 372.354 390.224 375.371 389.333 375.508C389.333 375.508 386.226 371.517 387.627 368.391Z" fill="#2C3A64"/>
<path d="M391.689 386.676C391.689 386.676 406.99 382.961 413.643 388.449L410.318 434.819L380.393 427.59C380.393 427.59 381.236 424.655 386.973 416.853C392.711 409.051 390.215 397.606 391.689 386.676Z" fill="#FFB27D"/>
<path d="M400.608 429.658C400.608 429.658 400.591 429.815 400.56 430.115C400.546 430.245 400.529 430.4 400.51 430.581C400.381 431.783 400.137 434.089 399.823 437.087C399.001 444.952 397.714 457.582 396.835 467.552C396.148 475.348 395.711 481.517 395.948 482.508C396.656 485.489 395.948 521.124 395.948 521.124C393.405 522.345 389.549 521.124 389.549 521.124C389.549 521.124 382.774 489.011 383.723 484.548C384.671 480.085 383.09 476.275 383.09 476.275C377.83 451.779 378.405 438.201 379.451 431.702C379.755 429.811 380.098 428.52 380.35 427.733C380.562 427.063 380.711 426.758 380.711 426.758C392.311 423.635 400.608 429.658 400.608 429.658Z" fill="#2B478B"/>
<path d="M415.706 401.675C414.967 407.254 412.012 414.079 410.957 417.754C410.957 417.754 412.721 430.51 411.036 434.015C410.845 434.415 410.608 434.693 410.318 434.819C404.078 437.538 379.779 434.898 378.753 427.058C378.38 424.21 388.009 414.191 388.57 412.976C388.803 412.474 389.052 410.842 387.923 407.466C386.323 412.399 377.491 410.981 377.491 410.981C378.527 409.206 381.111 396.936 383.994 391.397C386.162 387.233 391.95 386.629 391.95 386.629C391.95 386.629 394.36 390.451 400.186 389.909C406.011 389.367 407.078 385.801 407.078 385.801C407.078 385.801 412.246 386.488 413.838 387.772C414.112 387.995 416.674 394.366 415.706 401.675Z" fill="#F99746"/>
<path d="M410.957 417.754C410.957 417.754 412.721 430.51 411.036 434.015C406.49 431.733 402.908 425.56 403.735 418.684C404.346 413.601 405.255 412.443 407.974 409.534C409.973 407.397 414.592 407.276 414.23 408.293C413.153 411.319 411.514 415.814 410.957 417.754Z" fill="#ED7D2B"/>
<path d="M391.979 402.669L402.398 419.384H384.671L374.743 403.03L391.979 402.669Z" fill="#1C468A"/>
<path d="M401.856 418.545L402.036 417.961L392.178 402.142L391.979 402.669L401.856 418.545Z" fill="#EFDECE"/>
<path d="M392.178 402.142L375.477 402.617L374.743 403.03L391.979 402.669L392.178 402.142Z" fill="#FCECDB"/>
<path d="M374.743 403.03L365.374 397.958L376.295 415.11L384.671 419.384L374.743 403.03Z" fill="#163560"/>
<path d="M424.323 414.744C423.32 415.203 420.743 418.236 419.824 418.545C415.69 419.927 398.097 416.247 398.097 416.247L398.642 413.166C398.642 413.166 415.911 413.625 417.808 413.116C418.165 413.019 420.031 410.1 420.749 409.682L424.323 414.744Z" fill="#FFB27D"/>
<path d="M398.642 413.164C398.642 413.164 396.561 411.469 395.154 411.852C393.747 412.235 391.675 414.015 390.907 414.436C390.139 414.857 388.05 416.364 389.109 417.276C390.167 418.187 393.464 417.405 394.769 416.706C396.074 416.007 398.099 416.245 398.099 416.245L398.642 413.164Z" fill="#FFB27D"/>
<path d="M395.552 411.799C395.552 411.799 393.022 411.497 392.33 411.51C391.639 411.524 391.826 411.676 392.207 412.213C392.589 412.75 393.906 412.954 393.966 413.142C394.027 413.33 395.552 411.799 395.552 411.799Z" fill="#FFB27D"/>
<path d="M407.076 385.801C407.076 385.801 414.582 386.691 416.648 389.909C419.261 393.978 425.427 410.185 425.229 414.269C425.229 414.269 420.72 421.942 405.262 420.713C405.262 420.713 403.653 415.032 406.905 413.156C406.905 413.156 414.846 411.743 415.761 410.937L409.288 399.172L407.076 385.801Z" fill="#F99746"/>
<path d="M377.145 409.14C376.911 408.194 374.85 408.785 374.155 409.33C373.986 409.463 373.804 409.688 373.627 409.952C373.604 409.793 373.587 409.643 373.577 409.524C373.537 409.08 373.021 408.284 372.891 408.88C372.763 409.475 372.551 411.978 372.551 411.978C372.525 413.994 373.822 414.826 374.654 414.17C375.486 413.515 377.376 410.086 377.145 409.14Z" fill="#FFB27D"/>
<path d="M652.615 526.627H179.913C179.578 526.627 179.304 526.353 179.304 526.018V525.619C179.304 525.284 179.578 525.01 179.913 525.01H652.613C652.948 525.01 653.222 525.284 653.222 525.619V526.018C653.224 526.355 652.949 526.627 652.615 526.627Z" fill="#2E3552"/>
</g>
<defs>
<filter id="filter0_d_2791_1714" x="137" y="81" width="560" height="596" filterUnits="userSpaceOnUse" color-interpolation-filters="sRGB">
<feFlood flood-opacity="0" result="BackgroundImageFix"/>
<feColorMatrix in="SourceAlpha" type="matrix" values="0 0 0 0 0 0 0 0 0 0 0 0 0 0 0 0 0 0 127 0" result="hardAlpha"/>
<feOffset dy="2"/>
<feGaussianBlur stdDeviation="10"/>
<feComposite in2="hardAlpha" operator="out"/>
<feColorMatrix type="matrix" values="0 0 0 0 0 0 0 0 0 0 0 0 0 0 0 0 0 0 0.15 0"/>
<feBlend mode="normal" in2="BackgroundImageFix" result="effect1_dropShadow_2791_1714"/>
<feBlend mode="normal" in="SourceGraphic" in2="effect1_dropShadow_2791_1714" result="shape"/>
</filter>
</defs>
</svg>
