<svg width="20" height="20" viewBox="0 0 20 20" fill="none" xmlns="http://www.w3.org/2000/svg">
<g clip-path="url(#clip0_2354_1941)">
<rect width="20" height="20" fill="white"/>
<path opacity="0.3" d="M15 12.5C15 15.5376 12.0376 19.5 9 19.5C5.96243 19.5 4 15.5376 4 12.5C4 9.46243 7.46243 0 10.5 0C13.5376 0 15 9.46243 15 12.5Z" fill="#26A69A"/>
<path fill-rule="evenodd" clip-rule="evenodd" d="M10.0686 10.5088C8.24521 10.5088 6.21071 9.10264 5.7124 5.92807C5.67506 5.69426 5.83418 5.47669 6.068 5.43932C6.30019 5.40198 6.51937 5.56273 6.55674 5.79492C6.98214 8.50489 8.66108 9.68697 10.1289 9.65285C11.6374 9.61875 13.3017 8.30678 13.6215 5.44916C13.6475 5.21535 13.8602 5.04648 14.094 5.07246C14.3278 5.09844 14.4967 5.30952 14.4707 5.54496C14.0924 8.9158 12.027 10.4665 10.1486 10.5072C10.1226 10.5072 10.0966 10.5089 10.0706 10.5089L10.0686 10.5088Z" fill="#152A06"/>
<path fill-rule="evenodd" clip-rule="evenodd" d="M9.68704 0.856063C8.80212 0.856063 8.06007 1.18568 7.47069 1.84004C6.49644 2.92469 6.27077 4.54839 6.42664 5.37324C7.79383 5.0826 8.61864 4.35194 9.4159 3.64397C9.93711 3.18282 10.4746 2.70547 11.1386 2.37908C11.2426 2.32875 11.3611 2.32063 11.4699 2.3596C11.5787 2.39857 11.668 2.47813 11.7151 2.58367C12.1112 3.44099 12.954 4.73348 13.7187 5.01439C14.024 3.45724 13.5304 2.05111 12.8354 1.41626C12.4246 1.0428 11.9749 0.943764 11.4958 1.12561C11.4033 1.15971 11.3026 1.16296 11.2084 1.13048C10.6613 0.947001 10.153 0.854452 9.68538 0.854452L9.68704 0.856063ZM6.13098 6.28735C5.96698 6.28735 5.81273 6.19155 5.74291 6.03892C5.28991 5.0598 5.48636 2.77037 6.83405 1.26826C7.60857 0.404453 9.0147 -0.456111 11.3432 0.276177C12.0755 0.0537263 12.8046 0.232336 13.4119 0.786039C14.5274 1.80248 14.9577 3.78669 14.4559 5.6099C14.4072 5.79013 14.2465 5.91678 14.0597 5.92328C12.712 5.97037 11.603 4.20215 11.1484 3.35456C10.7425 3.61273 10.3723 3.94074 9.98582 4.28333C9.07006 5.09356 8.03412 6.01423 6.19607 6.28213C6.17496 6.28538 6.15385 6.287 6.13436 6.287L6.13098 6.28735Z" fill="#152A06"/>
<path fill-rule="evenodd" clip-rule="evenodd" d="M5.09682 22.0001C4.85976 22.0001 4.6698 21.8085 4.6698 21.5731V16.5755C4.6698 16.34 4.85977 16.1484 5.09682 16.1484C5.33226 16.1484 5.52384 16.34 5.52384 16.5755V21.5731C5.52384 21.8085 5.33224 22.0001 5.09682 22.0001ZM15.0825 22.0001C14.847 22.0001 14.6555 21.8085 14.6555 21.5731V16.5755C14.6555 16.34 14.8471 16.1484 15.0825 16.1484C15.3179 16.1484 15.5095 16.34 15.5095 16.5755V21.5731C15.5095 21.8085 15.3179 22.0001 15.0825 22.0001Z" fill="#152A06"/>
<path fill-rule="evenodd" clip-rule="evenodd" d="M12.246 9.67125C12.246 9.67287 12.2443 9.6745 12.2443 9.67774C12.2443 9.67612 12.2443 9.6745 12.246 9.67125ZM12.5723 12.2108C12.4489 12.2108 12.3271 12.1588 12.2427 12.0565C11.4325 11.079 11.3253 9.79791 11.4195 9.45207C11.4812 9.22475 11.7166 9.08998 11.9439 9.15168C12.168 9.21338 12.3011 9.44233 12.2459 9.66641C12.22 9.85638 12.3158 10.8046 12.9003 11.5109C13.0513 11.6928 13.0253 11.9623 12.8435 12.1117C12.7639 12.1783 12.6665 12.2091 12.5707 12.2091L12.5723 12.2108Z" fill="#152A06"/>
<path fill-rule="evenodd" clip-rule="evenodd" d="M7.88139 9.67113C7.88139 9.67275 7.88302 9.67437 7.88302 9.67762C7.88302 9.676 7.88302 9.67437 7.88139 9.67113ZM7.55502 12.2106C7.45922 12.2106 7.3618 12.1782 7.28224 12.1116C7.10038 11.9606 7.0744 11.691 7.22541 11.5108C7.80993 10.8045 7.90736 9.85624 7.87976 9.66627C7.82455 9.4422 7.9577 9.21327 8.18177 9.15155C8.40909 9.08985 8.64453 9.22299 8.70622 9.45194C8.80039 9.79616 8.69323 11.0773 7.88298 12.0564C7.79855 12.1587 7.67677 12.2106 7.55337 12.2106L7.55502 12.2106Z" fill="#152A06"/>
<path fill-rule="evenodd" clip-rule="evenodd" d="M2.04746 21.1457H18.0799V16.6789C18.0799 14.2157 16.0762 12.2121 13.6131 12.2121H12.7817L10.4014 15.2582C10.3202 15.3621 10.1952 15.4222 10.0653 15.4222C9.93373 15.4222 9.80871 15.3621 9.72915 15.2582L7.34877 12.2121H6.51742C4.05424 12.2121 2.05062 14.2158 2.05062 16.6789V21.1457H2.04746ZM18.5072 21.9998H1.62056C1.38512 21.9998 1.19354 21.8082 1.19354 21.5728V16.6774C1.19354 13.7433 3.58041 11.3547 6.51621 11.3547H7.55701C7.68853 11.3547 7.81356 11.4148 7.89312 11.5187L10.064 14.2985L12.235 11.5187C12.3162 11.4148 12.4396 11.3547 12.5711 11.3547H13.6119C16.5459 11.3547 18.9345 13.7416 18.9345 16.6774V21.5711C18.9345 21.8065 18.7429 21.9981 18.5075 21.9981L18.5072 21.9998Z" fill="#152A06"/>
</g>
<defs>
<clipPath id="clip0_2354_1941">
<rect width="20" height="20" fill="white"/>
</clipPath>
</defs>
</svg>
