<svg width="20" height="20" viewBox="0 0 20 20" fill="none" xmlns="http://www.w3.org/2000/svg">
<rect width="20" height="20" fill="white"/>
<path opacity="0.3" d="M3.15976 9.07195C3.15976 12.0376 6.05207 19.3234 9.01774 19.3234C15.3639 20.2997 16.3402 13.5021 16.3402 10.5364C16.3402 7.57078 11.4952 4.67847 8.52957 4.67847C5.56391 4.67847 3.15976 6.10628 3.15976 9.07195Z" fill="#26A69A"/>
<path d="M13.5477 3.31547H16.586C17.0853 3.31547 17.5404 3.52036 17.871 3.85036L17.8734 3.85278C18.2022 4.18278 18.4071 4.63729 18.4071 5.13653V18.1789C18.4071 18.6788 18.2016 19.1339 17.8716 19.4645C17.5428 19.7951 17.0871 20 16.586 20H3.82106C3.32002 20 2.8643 19.7951 2.5349 19.4651C2.2055 19.1357 2 18.68 2 18.1789V5.13653C2 4.63548 2.20489 4.17976 2.5349 3.85036L2.56089 3.82679C2.88908 3.51129 3.33452 3.31607 3.82106 3.31607H6.8594C6.89506 3.03261 7.02621 2.77755 7.21841 2.58535L7.24621 2.55996C7.47166 2.34721 7.77446 2.21606 8.10688 2.21606H8.63634C8.70645 1.94347 8.84667 1.69809 9.03585 1.50045L9.06003 1.47446C9.35316 1.18132 9.75751 1 10.2048 1C10.6496 1 11.0533 1.18132 11.3471 1.47325L11.3495 1.47566C11.5508 1.67693 11.6995 1.93138 11.7726 2.21545H12.302C12.6484 2.21545 12.9633 2.35688 13.1905 2.58414L13.2159 2.61194C13.3942 2.80112 13.5151 3.0453 13.5495 3.31486L13.5477 3.31547ZM8.38128 16.3887C8.15886 16.3887 7.97815 16.2086 7.97815 15.9856C7.97815 15.7631 8.15826 15.5824 8.38128 15.5824H14.1654C14.3878 15.5824 14.5686 15.7625 14.5686 15.9856C14.5686 16.208 14.3884 16.3887 14.1654 16.3887H8.38128ZM6.24109 16.3887C6.01867 16.3887 5.83796 16.2086 5.83796 15.9856C5.83796 15.7631 6.01807 15.5824 6.24109 15.5824H7.1066C7.32902 15.5824 7.50973 15.7625 7.50973 15.9856C7.50973 16.208 7.32962 16.3887 7.1066 16.3887H6.24109ZM8.32689 11.1056C8.18364 10.9364 8.2048 10.6825 8.37403 10.5393C8.54326 10.396 8.79711 10.4172 8.94035 10.5864L9.55624 11.3111L11.4722 9.16669C11.6197 9.00169 11.8735 8.98778 12.0385 9.13526C12.2035 9.28273 12.2174 9.53658 12.07 9.70158L9.86388 12.17C9.84696 12.1911 9.82822 12.2111 9.80707 12.2292C9.63783 12.3724 9.38399 12.3513 9.24074 12.1821L8.32568 11.1056H8.32689ZM10.203 6.92617C11.2371 6.92617 12.1751 7.34623 12.8545 8.02558L12.8569 8.02799C13.535 8.70734 13.9551 9.64537 13.9551 10.6783C13.9551 11.7124 13.5344 12.6511 12.8551 13.3304C12.1769 14.0104 11.2389 14.4304 10.203 14.4304C9.16701 14.4304 8.22837 14.0104 7.54962 13.331C6.87088 12.6523 6.45022 11.7136 6.45022 10.6777C6.45022 9.64175 6.87028 8.70311 7.54962 8.02437L7.5744 8.002C8.25194 7.33595 9.1803 6.92556 10.203 6.92556V6.92617ZM12.2869 8.59371C11.7545 8.06063 11.0177 7.73184 10.203 7.73184C9.39789 7.73184 8.66958 8.05277 8.13892 8.57377L8.11958 8.59492C7.58649 9.12801 7.25649 9.86477 7.25649 10.6783C7.25649 11.4918 7.58649 12.2286 8.11958 12.7617C8.65266 13.2948 9.38943 13.6248 10.203 13.6248C11.0165 13.6248 11.7532 13.2948 12.2863 12.7617C12.82 12.2298 13.1494 11.493 13.1494 10.6783C13.1494 9.86356 12.8206 9.1268 12.2869 8.59371ZM9.4952 2.21545H10.9107C10.875 2.15199 10.8303 2.09457 10.7796 2.0432C10.6321 1.89572 10.4284 1.80506 10.203 1.80506C9.97872 1.80506 9.77503 1.89633 9.62816 2.0432L9.60943 2.06073C9.56591 2.10727 9.52723 2.15924 9.4952 2.21545ZM6.84852 4.12053H3.81986C3.54908 4.12053 3.30249 4.22751 3.12117 4.39976L3.10303 4.41911C2.9193 4.60284 2.80446 4.8573 2.80446 5.13593V18.1783C2.80446 18.457 2.9193 18.7108 3.10303 18.8952C3.28677 19.0789 3.54123 19.1937 3.81986 19.1937H16.5848C16.8635 19.1937 17.1173 19.0789 17.3017 18.8952C17.4866 18.7126 17.6002 18.4582 17.6002 18.1783V5.13593C17.6002 4.85609 17.486 4.60224 17.3035 4.41911C17.1191 4.23416 16.8647 4.12053 16.5848 4.12053H13.5568V4.69048C13.5568 4.9129 13.3767 5.09362 13.1536 5.09362H7.25044C7.02802 5.09362 6.84731 4.91351 6.84731 4.69048V4.12053H6.84852ZM12.2996 3.02112H11.4184H8.98629H8.10507C7.98842 3.02112 7.88144 3.06585 7.80166 3.13838L7.78655 3.15409C7.70496 3.23569 7.65358 3.34871 7.65358 3.47261V3.718V4.28795H12.7505V3.718V3.47261C12.7505 3.35596 12.7064 3.24959 12.6339 3.16981L12.6169 3.15409C12.5353 3.0725 12.4223 3.02112 12.2984 3.02112H12.2996Z" fill="black"/>
</svg>
