<svg width="21" height="20" viewBox="0 0 21 20" fill="none" xmlns="http://www.w3.org/2000/svg">
<g clip-path="url(#clip0_2354_1965)">
<rect width="20" height="20" transform="translate(0.285706)" fill="white"/>
<path opacity="0.3" d="M17 5.5C17 8.53757 13.0376 15.5 10 15.5C6.96243 15.5 5 9.53757 5 6.5C5 3.46243 8.46243 1 11.5 1C14.5376 1 17 2.46243 17 5.5Z" fill="#26A69A"/>
<path d="M4.74016 16.7857C3.99235 16.9075 3.30323 17.2844 2.77876 17.8585C2.2543 18.4327 1.92351 19.1723 1.83728 19.9636L1.52488 22.8359C1.51057 22.983 1.52572 23.1315 1.56936 23.2719C1.61299 23.4124 1.68414 23.5417 1.7782 23.6514C1.87226 23.7611 1.98714 23.8488 2.11542 23.9089C2.2437 23.9689 2.38252 24 2.52292 24H18.2814C18.4218 24 18.5606 23.9689 18.6889 23.9089C18.8171 23.8488 18.932 23.7611 19.0261 23.6514C19.1201 23.5417 19.1913 23.4124 19.2349 23.2719C19.2786 23.1315 19.2937 22.983 19.2794 22.8359L18.9781 19.9636C18.8918 19.1723 18.5611 18.4327 18.0366 17.8585C17.5121 17.2844 16.823 16.9075 16.0752 16.7857L13.0728 16.3027L12.7106 14.6526C13.7249 13.9898 14.4928 12.9812 14.8864 11.7948H15.2292C15.5746 11.7956 15.9103 11.6752 16.1834 11.4528C16.4566 11.2303 16.6515 10.9183 16.7374 10.5662C16.8233 10.2141 16.7953 9.84195 16.6579 9.50844C16.5205 9.17494 16.2814 8.89915 15.9784 8.72463C16.6421 7.94517 17.1466 7.03046 17.4605 6.03725C17.7743 5.04404 17.891 3.99352 17.8031 2.95089C17.7881 2.86072 17.7407 2.78011 17.6706 2.72588C17.6006 2.67166 17.5133 2.64801 17.4271 2.65988C16.9501 2.72483 16.4662 2.70614 15.995 2.60458C16.653 1.98181 16.7829 0.922518 16.7387 0.328848C16.7324 0.239297 16.6941 0.155583 16.6315 0.0945644C16.5689 0.033546 16.4867 -0.000243326 16.4014 1.31925e-06C16.3146 0.00149964 16.2317 0.0384665 16.1704 0.10309C16.109 0.167713 16.0738 0.25493 16.0724 0.346309C16.0404 0.41538 15.993 0.475282 15.9342 0.520918C15.7075 0.707167 14.9196 1.08258 12.5005 0.520918C8.85947 -0.308474 7.21728 2.16515 6.84958 2.82867C5.79349 3.11968 5.06639 3.70171 4.69039 4.53983C4.0407 6.01819 4.65722 7.88941 4.96686 8.67224C4.64355 8.82801 4.38078 9.0958 4.22241 9.4309C4.06404 9.766 4.01964 10.1481 4.09664 10.5135C4.17363 10.8789 4.36736 11.2055 4.64548 11.4387C4.9236 11.6718 5.26929 11.7976 5.62484 11.7948H5.95107C6.34372 12.9818 7.11185 13.9907 8.12684 14.6526L7.76468 16.2997L4.74016 16.7857ZM9.27693 15.3743C9.62266 15.5897 10.017 15.7033 10.4187 15.7033C10.8205 15.7033 11.2148 15.5897 11.5605 15.3743L12.0996 15.0367L12.4314 16.5442L10.4187 18.5813L8.40607 16.5442L8.74889 15.0367L9.27693 15.3743ZM13.6672 17.1204L11.8702 19.984L10.9136 19.0615L12.9539 17.0069L13.6672 17.1204ZM9.92386 19.0615L8.96453 19.984L7.16751 17.1175L7.88079 17.004L9.92386 19.0615ZM2.27963 23.1852C2.24815 23.1496 2.22443 23.1072 2.2101 23.0609C2.19578 23.0147 2.1912 22.9657 2.19669 22.9174L2.50909 20.0451C2.57706 19.4087 2.84255 18.8137 3.26441 18.3523C3.68627 17.8909 4.24094 17.5888 4.84245 17.4929L6.42935 17.2397L8.61895 20.7319C8.64583 20.7749 8.68126 20.8112 8.72279 20.8383C8.76432 20.8655 8.81096 20.8828 8.85947 20.889C8.90903 20.8968 8.9596 20.8927 9.00746 20.877C9.05531 20.8614 9.09921 20.8347 9.13594 20.7988L10.0842 19.885V23.3074H2.52292C2.4763 23.3072 2.4303 23.2962 2.38823 23.275C2.34616 23.2539 2.30907 23.2232 2.27963 23.1852ZM18.3145 20.0451L18.627 22.9174C18.6316 22.9656 18.6266 23.0143 18.6123 23.0604C18.5981 23.1065 18.5749 23.149 18.5442 23.1851C18.5135 23.2212 18.476 23.2503 18.4341 23.2703C18.3922 23.2904 18.3468 23.301 18.3007 23.3016H10.7477V19.8763L11.6988 20.793C11.7611 20.8539 11.8432 20.8872 11.9282 20.8861H11.9697C12.0182 20.8799 12.0648 20.8625 12.1064 20.8354C12.1479 20.8083 12.1833 20.772 12.2102 20.729L14.3971 17.2368L15.9646 17.49C16.568 17.5843 17.1249 17.886 17.5485 18.3481C17.972 18.8103 18.2384 19.4069 18.3063 20.0451H18.3145ZM15.2292 11.0789H15.0716C15.1392 10.7254 15.1734 10.3657 15.1739 10.0051V9.2339H15.2292C15.3443 9.2339 15.4583 9.25776 15.5646 9.30413C15.6709 9.35049 15.7675 9.41844 15.8489 9.5041C15.9303 9.58977 15.9948 9.69146 16.0389 9.80339C16.0829 9.91531 16.1056 10.0353 16.1056 10.1564C16.1056 10.2776 16.0829 10.3975 16.0389 10.5095C15.9948 10.6214 15.9303 10.7231 15.8489 10.8087C15.7675 10.8944 15.6709 10.9624 15.5646 11.0087C15.4583 11.0551 15.3443 11.0789 15.2292 11.0789ZM5.30691 4.83958C5.60826 4.16151 6.22754 3.70462 7.14816 3.48636C7.19938 3.47521 7.24736 3.45147 7.2882 3.41708C7.32904 3.38268 7.36158 3.33862 7.38316 3.28847C7.38316 3.25937 8.70742 0.378321 12.3595 1.21644C14.0183 1.59767 15.2403 1.62386 15.9812 1.29502C15.935 1.53379 15.8284 1.755 15.6727 1.93531C15.517 2.11561 15.3179 2.24831 15.0965 2.31939C15.0333 2.33803 14.9766 2.37536 14.933 2.42694C14.8894 2.47853 14.8607 2.5422 14.8505 2.6104C14.8366 2.68068 14.8435 2.75374 14.8701 2.8198C14.8968 2.88585 14.942 2.94175 14.9997 2.97999C15.6647 3.33399 16.412 3.48041 17.1534 3.40197C17.1729 4.34988 17.0116 5.29229 16.6792 6.17351C16.3468 7.05472 15.85 7.85687 15.2181 8.53256H15.1656V7.95635C15.1603 7.58873 15.0568 7.2301 14.8672 6.92136C14.6775 6.61263 14.4092 6.36623 14.0929 6.21026C14.4258 5.98176 14.7344 5.71639 15.0136 5.4187C15.067 5.36303 15.1015 5.29028 15.1115 5.21182C15.1215 5.13336 15.1065 5.05362 15.0689 4.98509C15.03 4.91727 14.9712 4.86467 14.9013 4.83525C14.8314 4.80584 14.7544 4.80123 14.6818 4.82212C14.6403 4.82212 13.6534 5.11313 12.4701 4.30411L12.1024 4.90069C12.613 5.25938 13.1962 5.48758 13.8054 5.56712C12.976 6.14915 11.9172 6.40815 10.3994 5.56712C9.66675 5.1626 8.99494 5.07821 8.40331 5.31684C7.91639 5.53224 7.51571 5.91903 7.26981 6.41106H7.21175C6.85326 6.39722 6.50174 6.51774 6.21975 6.75115C5.93776 6.98456 5.74361 7.31573 5.67184 7.6857C5.66896 7.70791 5.66896 7.73043 5.67184 7.75264V8.50928C5.40644 7.92725 4.73186 6.14041 5.30691 4.83958ZM5.62484 11.0789C5.39241 11.0789 5.1695 10.9817 5.00514 10.8087C4.84079 10.6357 4.74845 10.4011 4.74845 10.1564C4.74845 9.91175 4.84079 9.67711 5.00514 9.5041C5.1695 9.3311 5.39241 9.2339 5.62484 9.2339H5.66078V10.0051C5.66081 10.3659 5.69601 10.7257 5.76584 11.0789H5.62484ZM6.34089 10.0051V7.80502C6.37683 7.64787 6.57864 7.03092 7.42462 7.15606C7.5011 7.16605 7.57855 7.14885 7.64467 7.1072C7.71079 7.06554 7.76179 7.00182 7.78956 6.92616C7.95292 6.51439 8.25805 6.1828 8.64383 5.99782C9.0447 5.83776 9.53128 5.9076 10.0814 6.21317C11.3864 6.93198 12.4369 6.94071 13.2746 6.64096C13.5511 6.71662 14.4966 7.03674 14.4966 7.95635V9.99345C14.492 10.8155 14.286 11.6223 13.8985 12.336C13.5111 13.0497 12.9553 13.6462 12.2849 14.0677L11.2149 14.7341C10.9738 14.8841 10.6988 14.9633 10.4187 14.9633C10.1386 14.9633 9.86365 14.8841 9.62251 14.7341L8.5526 14.0677C7.88339 13.6476 7.32832 13.0531 6.94092 12.3415C6.55351 11.6299 6.34686 10.8252 6.34089 10.0051ZM9.13041 9.57439C9.13041 9.67627 9.10171 9.77586 9.04794 9.86056C8.99417 9.94527 8.91775 10.0113 8.82833 10.0503C8.73891 10.0893 8.64052 10.0995 8.5456 10.0796C8.45068 10.0597 8.36349 10.0107 8.29505 9.93862C8.22661 9.86658 8.18001 9.7748 8.16113 9.67488C8.14225 9.57496 8.15194 9.47139 8.18897 9.37727C8.22601 9.28315 8.28873 9.2027 8.3692 9.1461C8.44968 9.0895 8.54428 9.05929 8.64107 9.05929C8.77085 9.05929 8.89531 9.11356 8.98708 9.21016C9.07885 9.30676 9.13041 9.43778 9.13041 9.57439ZM12.6857 9.57439C12.6863 9.67697 12.6579 9.7774 12.6041 9.86297C12.5504 9.94854 12.4737 10.0154 12.3839 10.055C12.294 10.0947 12.195 10.1054 12.0993 10.0857C12.0037 10.066 11.9157 10.0169 11.8466 9.94462C11.7776 9.87229 11.7304 9.78 11.7112 9.67943C11.692 9.57887 11.7016 9.47457 11.7387 9.37975C11.7759 9.28492 11.839 9.20385 11.9199 9.1468C12.0009 9.08975 12.0962 9.0593 12.1936 9.05929C12.3237 9.05929 12.4484 9.11347 12.5406 9.20998C12.6328 9.3065 12.685 9.43751 12.6857 9.57439ZM7.60433 12.2925C7.55241 12.2228 7.52688 12.1353 7.53266 12.047C7.53845 11.9586 7.57515 11.8757 7.63566 11.8141C7.69618 11.7526 7.77621 11.7169 7.86029 11.7138C7.94438 11.7108 8.02654 11.7407 8.0909 11.7977C8.21502 11.9063 8.37248 11.9635 8.53379 11.9587C8.69511 11.9539 8.84923 11.8874 8.9673 11.7716C9.16352 11.5964 9.40231 11.4823 9.65678 11.4422C9.91125 11.4021 10.1713 11.4375 10.4077 11.5446C10.6447 11.434 10.9065 11.3958 11.1631 11.4344C11.4198 11.473 11.661 11.5868 11.8591 11.7628C11.9777 11.879 12.1326 11.9455 12.2945 11.9498C12.4564 11.9541 12.6143 11.8959 12.7383 11.7861C12.7699 11.7519 12.8075 11.7246 12.8491 11.7057C12.8908 11.6868 12.9355 11.6768 12.9808 11.6761C13.0261 11.6754 13.0711 11.6841 13.1132 11.7018C13.1553 11.7194 13.1937 11.7456 13.2262 11.7788C13.2587 11.8121 13.2847 11.8517 13.3026 11.8955C13.3205 11.9394 13.3301 11.9864 13.3307 12.0341C13.3314 12.0818 13.3231 12.1292 13.3063 12.1735C13.2896 12.2178 13.2647 12.2583 13.2331 12.2925C13.0555 12.4887 12.8406 12.6432 12.6024 12.746C12.3642 12.8488 12.1081 12.8975 11.8508 12.8891C11.3372 12.8728 10.8378 12.7076 10.4077 12.4118C9.02535 13.3023 7.96926 12.729 7.60433 12.2925ZM13.8745 20.8279H16.5922V21.5409H13.8745V20.8279Z" fill="#152A06"/>
</g>
<defs>
<clipPath id="clip0_2354_1965">
<rect width="20" height="20" fill="white" transform="translate(0.285706)"/>
</clipPath>
</defs>
</svg>
