<svg width="21" height="20" viewBox="0 0 21 20" fill="none" xmlns="http://www.w3.org/2000/svg">
<g clip-path="url(#clip0_2354_2010)">
<rect width="20" height="20" transform="translate(0.857178)" fill="white"/>
<path opacity="0.3" d="M7.85718 10.5C7.85718 13.5376 11.8196 20.5 14.8572 20.5C17.8947 20.5 19.8572 14.5376 19.8572 11.5C19.8572 8.46243 16.3947 6 13.3572 6C10.3196 6 7.85718 7.46243 7.85718 10.5Z" fill="#26A69A"/>
<path d="M5.28444 12.8066C4.09104 12.7958 2.48184 12.8012 2.23344 14.4374C2.09844 14.9342 1.15344 19.2002 6.01884 23.7308C7.23384 24.8648 10.3064 27.5 12.542 27.5C14.1998 27.5 16.241 26.285 17.8718 24.3302C18.4442 23.6444 18.9356 22.8614 19.3676 21.9326C20.4584 19.6052 21.5816 16.4462 20.7122 14.6048C20.453 14.054 20.0264 13.6652 19.4702 13.433C20.0534 12.7958 20.4152 11.9534 20.4476 11.0732C20.4962 9.7502 19.7942 8.4218 18.6602 7.6874C18.239 7.412 17.7638 7.2284 17.267 7.1258C17.0672 2.9084 15.4904 0.5 12.9038 0.5C11.4782 0.5 9.84204 0.662 8.48664 1.4612C8.07624 1.2992 7.64424 1.2074 7.19604 1.2074C5.27364 1.2074 3.71304 2.768 3.71304 4.6904C3.71304 6.062 4.51764 7.2824 5.73804 7.844C5.78664 9.4478 6.34824 11.0462 7.22304 12.38C6.94764 12.7742 6.26724 12.8012 5.28444 12.8066ZM12.9578 11.813C13.0712 11.975 13.136 12.0722 13.1468 12.164C13.1522 12.2288 13.136 12.2774 13.0496 12.4286C12.8876 12.7256 12.5852 13.2764 13.2224 14.0756C13.2818 14.1458 13.3412 14.2106 13.406 14.27C13.0172 14.4536 12.6014 14.5562 12.1694 14.5562C10.5494 14.5562 8.63244 13.028 7.58484 10.8842C7.58484 10.868 7.59564 10.8518 7.59564 10.8356C7.59564 9.6908 8.22744 8.573 9.20484 7.979C9.61524 7.7306 10.0796 7.5632 10.571 7.3904C10.7006 7.3418 10.8302 7.2986 10.9598 7.25C11.6024 7.0124 12.3314 6.6938 12.8822 6.1106C12.9902 5.9972 13.082 5.8838 13.1684 5.765C13.3466 5.9864 13.568 6.1592 13.8272 6.2348C14.2268 6.3482 14.6264 6.3212 14.972 6.2996C15.1178 6.2888 15.2528 6.278 15.4094 6.2834C15.6632 6.2888 16.0574 6.5372 16.16 6.7424C16.1654 6.845 16.1762 6.9368 16.1816 7.034C15.7334 7.0556 15.2852 7.142 14.8586 7.304C13.73 7.736 12.4178 8.7566 12.4178 10.2092C12.4232 11.0408 12.731 11.489 12.9578 11.813ZM14.6048 14.8208C14.8424 14.864 15.0854 14.8856 15.323 14.8964C15.1664 15.3392 14.8748 15.9386 14.3456 16.376C13.5788 17.0078 11.354 17.2454 9.83664 15.4364C9.68004 15.2474 9.52344 14.972 9.39384 14.6642C10.2686 15.2744 11.2244 15.6362 12.1748 15.6362C13.0442 15.6416 13.8812 15.3554 14.6048 14.8208ZM15.9818 5.3114C15.7928 5.2466 15.6038 5.2088 15.431 5.2034C15.2582 5.198 15.0854 5.2142 14.9072 5.225C14.621 5.2466 14.351 5.2628 14.1296 5.198C13.9892 5.1386 13.7516 4.7012 13.6166 4.2476C13.6004 4.0964 13.568 3.9398 13.514 3.794C13.4168 3.5348 13.1414 3.3836 12.8714 3.4538C12.6014 3.524 12.4286 3.7832 12.4718 4.0586C12.488 4.1558 12.5096 4.28 12.5474 4.4204C12.5582 4.8416 12.2558 5.2142 12.1046 5.3762C11.705 5.7974 11.1164 6.0512 10.5926 6.2456L10.2146 6.3806C9.69084 6.5642 9.15084 6.7586 8.64864 7.061C7.90344 7.5146 7.31484 8.2058 6.94764 8.9996C6.86124 8.5568 6.81264 8.0978 6.81264 7.6388C6.81264 4.8416 7.62264 3.3242 8.85384 2.498C8.86464 2.4926 8.87544 2.4872 8.88624 2.4764C9.98244 1.7474 11.4134 1.58 12.9038 1.58C14.8316 1.58 15.6416 3.5078 15.9818 5.3114ZM4.79304 4.6904C4.79304 3.3674 5.87304 2.2874 7.19604 2.2874C7.27164 2.2874 7.34724 2.2928 7.42284 2.2982C6.54804 3.2162 5.92164 4.5878 5.77044 6.6182C5.16564 6.1808 4.79304 5.4734 4.79304 4.6904ZM7.97904 13.379C8.01144 14.2484 8.45964 15.4742 9.01044 16.133C10.8734 18.347 13.7732 18.2498 15.0314 17.2076C16.3112 16.1492 16.538 14.4968 16.5488 14.432C16.5704 14.2754 16.511 14.1188 16.4084 14C16.3058 13.8812 16.1384 13.811 15.9872 13.8218C15.2582 13.8326 14.4266 13.8488 14.0648 13.4006C13.8758 13.1684 13.8812 13.163 13.9946 12.9524C14.1026 12.7526 14.27 12.4502 14.216 12.029C14.1674 11.6726 13.9946 11.4242 13.8434 11.2028C13.6598 10.9382 13.4978 10.706 13.4978 10.22C13.4978 9.3776 14.405 8.6432 15.2474 8.3192C16.1762 7.9628 17.2562 8.0654 18.0662 8.5892C18.887 9.1238 19.4 10.085 19.3622 11.03C19.3298 11.9804 18.7142 12.9038 17.8718 13.2818C17.726 13.3466 17.618 13.4708 17.5748 13.6274C17.5316 13.784 17.5586 13.946 17.645 14.0756C18.5306 15.3986 18.2984 17.3372 17.1374 18.2444C15.6794 19.481 13.46 21.3602 12.5906 22.0784C11.7752 21.1442 9.56124 18.4766 8.52984 17.2292C7.58484 16.0898 7.55244 16.052 7.51464 16.0142C7.30944 15.809 6.98004 15.8036 6.76404 16.0088C6.55344 16.2086 6.53724 16.5434 6.73164 16.7648C6.78564 16.8296 7.16364 17.2832 7.69284 17.9204C11.6564 22.6994 12.2018 23.3582 12.542 23.3582C12.596 23.3582 12.6446 23.342 12.704 23.3204C12.8336 23.2772 12.893 23.2556 17.8124 19.0814C19.1516 18.0392 19.589 16.0682 18.9896 14.3996C19.3352 14.5238 19.5782 14.7344 19.7294 15.0638C20.2532 16.1708 19.751 18.5684 18.3848 21.4736C17.9906 22.316 17.5478 23.0288 17.0348 23.639C15.6308 25.3292 13.865 26.42 12.542 26.42C11.2622 26.42 9.09684 25.1186 6.75864 22.9424C2.20644 18.7034 3.23784 14.864 3.28104 14.702C3.28644 14.675 3.29184 14.648 3.29724 14.621C3.38364 13.9838 3.84804 13.8758 5.27904 13.8866C6.19164 13.8866 7.24464 13.8866 7.88184 13.2764C7.91964 13.3088 7.94664 13.3466 7.97904 13.379Z" fill="black"/>
</g>
<defs>
<clipPath id="clip0_2354_2010">
<rect width="20" height="20" fill="white" transform="translate(0.857178)"/>
</clipPath>
</defs>
</svg>
