<svg width="21" height="20" viewBox="0 0 21 20" fill="none" xmlns="http://www.w3.org/2000/svg">
<g clip-path="url(#clip0_2354_1987)">
<rect width="20" height="20" transform="translate(0.571442)" fill="white"/>
<path opacity="0.3" d="M5 7.5C5 10.5376 8.96243 17.5 12 17.5C15.0376 17.5 17 11.5376 17 8.5C17 5.46243 13.5376 3 10.5 3C7.46243 3 5 4.46243 5 7.5Z" fill="#26A69A"/>
<path d="M19.9819 19.9561C18.6826 18.2444 15.2563 17.482 14.0489 17.2595L14.132 16.4882C14.6691 16.3513 15.1735 16.1082 15.6152 15.7733C18.1457 13.9014 16.9116 8.06033 16.5052 6.43171C16.307 5.45205 15.7992 4.56199 15.0568 3.89276C14.3144 3.22352 13.3766 2.81053 12.3817 2.71466C11.5487 2.61169 10.7043 2.6498 9.8839 2.82739C9.75693 2.30597 9.49487 1.82719 9.12408 1.43922C8.7533 1.05125 8.28688 0.767783 7.77174 0.617333C6.49614 0.258385 5.10187 0.735994 4.10215 1.87217C3.86725 2.12467 3.68886 2.42434 3.57888 2.75121C3.4689 3.07808 3.42986 3.42463 3.46435 3.76778C3.58598 4.97812 4.57383 6.01047 5.07221 6.46434C4.91209 6.79206 4.78202 7.13362 4.68359 7.48483C4.01613 9.9411 5.73967 11.7447 6.79279 12.3914C7.12152 12.7343 7.52879 12.9919 7.9794 13.142V16.7641C6.55547 16.9421 1.9099 17.8617 -1.03882 22.3323C-1.1031 22.4312 -1.12575 22.5515 -1.10187 22.667C-1.07798 22.7825 -1.00949 22.884 -0.911263 22.9493C-0.839426 22.9978 -0.754688 23.0236 -0.668008 23.0235C-0.593195 23.0244 -0.519315 23.0068 -0.453027 22.9721C-0.386739 22.9374 -0.330127 22.8867 -0.288294 22.8247C1.85947 19.5437 5.08407 18.3186 6.95595 17.8647C7.38906 18.5826 8.66763 20.1786 11.5096 20.2379H11.6579C14.1498 20.2379 14.9566 19.1254 15.2177 18.4402C16.6149 18.8051 18.4809 19.4607 19.2759 20.5167C20.0994 21.5904 20.6922 22.8225 21.0173 24.1359C21.0371 24.2372 21.0913 24.3286 21.1708 24.3946C21.2503 24.4605 21.3501 24.497 21.4533 24.4978C21.4819 24.5007 21.5108 24.5007 21.5394 24.4978C21.6545 24.4748 21.756 24.4075 21.822 24.3104C21.888 24.2133 21.9133 24.0942 21.8924 23.9787C21.5507 22.5166 20.8992 21.1448 19.9819 19.9561ZM4.34838 3.66692C4.32741 3.44515 4.35445 3.22147 4.42765 3.01108C4.50085 2.80069 4.6185 2.60854 4.77259 2.44768C5.53498 1.57552 6.59106 1.19877 7.52848 1.46576C7.89463 1.57991 8.22437 1.78824 8.48468 2.0699C8.74499 2.35155 8.92675 2.69665 9.01174 3.07065C7.608 3.54429 6.3907 4.45104 5.53498 5.66042C5.10187 5.254 4.43144 4.47381 4.34838 3.66692ZM5.53498 7.71028C6.26475 5.01965 9.22237 3.21304 12.2601 3.59869C14.0786 3.83007 14.93 4.87725 15.3186 5.67525L11.0675 5.56252C10.9583 5.56255 10.8528 5.60277 10.7713 5.67553C10.6898 5.7483 10.6379 5.84851 10.6255 5.95707C10.5484 6.5919 9.53089 7.63018 8.90792 8.13449C8.8227 8.20343 8.76657 8.30193 8.75069 8.41038L8.5282 9.81354C8.05356 9.66225 7.37719 9.53469 6.87585 9.81354C6.70666 9.91316 6.56423 10.0524 6.46087 10.2194C6.35751 10.3863 6.29631 10.5759 6.28255 10.7717C5.90846 10.3668 5.64419 9.87298 5.5149 9.33711C5.3856 8.80124 5.39558 8.2412 5.54388 7.71028H5.53498ZM11.5244 19.3361C9.44782 19.3005 8.36801 18.3037 7.8993 17.6748C8.23452 17.6244 8.43327 17.6096 8.44217 17.6096C8.55603 17.6035 8.6632 17.5539 8.74159 17.4711C8.81997 17.3883 8.86358 17.2786 8.86342 17.1646V12.7949C8.8633 12.6919 8.82746 12.5921 8.762 12.5126C8.69654 12.4331 8.60552 12.3787 8.50447 12.3588C8.09931 12.2689 7.7292 12.0627 7.43949 11.7655C7.34328 11.654 7.27035 11.5244 7.22501 11.3843C7.17966 11.2442 7.16282 11.0964 7.17547 10.9497C7.19623 10.6709 7.2971 10.6115 7.32973 10.5937C7.62638 10.4306 8.30868 10.6382 8.69433 10.8281C8.75637 10.8596 8.82498 10.8761 8.89457 10.8761C8.96416 10.8761 9.03277 10.8596 9.09481 10.8281C9.15713 10.7961 9.21107 10.7498 9.25229 10.6932C9.29351 10.6365 9.32085 10.5709 9.33213 10.5018L9.62878 8.72186C10.0263 8.38071 11.0883 7.41363 11.4354 6.47028L15.6597 6.583V6.6097C15.6631 6.64136 15.6711 6.67235 15.6834 6.70166C16.2352 8.91765 16.9709 13.6938 15.1139 15.0672C13.1322 16.5505 11.1832 15.1177 11.1002 15.0672C11.0089 15.0174 10.903 15.0011 10.801 15.0212C10.6989 15.0413 10.6071 15.0965 10.5416 15.1773C10.476 15.258 10.4408 15.3592 10.442 15.4632C10.4433 15.5672 10.4809 15.6674 10.5484 15.7466C11.3272 16.3021 12.2617 16.597 13.2183 16.5891L13.1115 17.568C13.0995 17.6828 13.1323 17.7978 13.2031 17.889C13.2738 17.9802 13.377 18.0405 13.4912 18.0575C13.4912 18.0575 13.8383 18.1079 14.3426 18.2177C14.1409 18.6745 13.5001 19.3776 11.5244 19.3361Z" fill="#152A06"/>
</g>
<defs>
<clipPath id="clip0_2354_1987">
<rect width="20" height="20" fill="white" transform="translate(0.571442)"/>
</clipPath>
</defs>
</svg>
