<svg width="21" height="20" viewBox="0 0 21 20" fill="none" xmlns="http://www.w3.org/2000/svg">
<g clip-path="url(#clip0_2354_2024)">
<rect width="20" height="20" transform="translate(0.142883)" fill="white"/>
<path opacity="0.3" d="M6 7C6 10.0376 8.96243 17.5 12 17.5C18.5 18.5 19.5 11.5376 19.5 8.5C19.5 5.46243 14.5376 2.5 11.5 2.5C8.46243 2.5 6 3.96243 6 7Z" fill="#26A69A"/>
<path d="M5.39823 23.4888H20.0067V3.84992L5.39823 0.5V12.6435L0.906544 15.2787L1.46486 16.2418L2.42797 15.6835V23.5L5.39823 23.4888ZM6.51487 22.3722V16.9565H10.144V22.3722H6.51487ZM11.2606 22.3722V15.8398H5.39823V22.3722H3.55019V15.0247L8.32941 12.2331L13.1086 15.0247V22.3722H11.2606ZM6.51487 1.89859L18.89 4.73486V22.3722H14.2253V15.6724L15.1884 16.2307L15.7467 15.2676L8.32941 10.9266L6.51487 11.993V1.89859ZM9.15293 7.12168H8.03629V5.6533H9.15293V7.12168ZM11.7547 7.12168H10.6381V5.6533H11.7547V7.12168ZM14.3565 7.12168H13.2482V5.6533H14.3649L14.3565 7.12168ZM16.9555 7.12168H15.8388V5.6533H16.9555V7.12168ZM9.15293 9.79882H8.03629V8.32765H9.15293V9.79882ZM11.7547 9.79882H10.6381V8.32765H11.7547V9.79882ZM14.3565 9.79882H13.2482V8.32765H14.3649L14.3565 9.79882ZM16.9555 9.79882H15.8388V8.32765H16.9555V9.79882Z" fill="black"/>
</g>
<defs>
<clipPath id="clip0_2354_2024">
<rect width="20" height="20" fill="white" transform="translate(0.142883)"/>
</clipPath>
</defs>
</svg>
