<svg width="21" height="20" viewBox="0 0 21 20" fill="none" xmlns="http://www.w3.org/2000/svg">
<g clip-path="url(#clip0_2354_2039)">
<rect width="20" height="20" transform="translate(0.428589)" fill="white"/>
<path opacity="0.3" d="M3 6.54826C3 10.0358 6.40131 18.6038 9.88889 18.6038C17.3519 19.752 18.5 11.7581 18.5 8.27048C18.5 4.7829 12.8024 1.38159 9.31481 1.38159C5.82724 1.38159 3 3.06068 3 6.54826Z" fill="#26A69A"/>
<path d="M4.05359 9C4.05359 8.90054 4.01408 8.80516 3.94375 8.73483C3.87343 8.66451 3.77805 8.625 3.67859 8.625C3.57913 8.625 3.48375 8.66451 3.41342 8.73483C3.3431 8.80516 3.30359 8.90054 3.30359 9V9.375C3.30359 9.47446 3.3431 9.56984 3.41342 9.64017C3.48375 9.71049 3.57913 9.75 3.67859 9.75C3.77805 9.75 3.87343 9.71049 3.94375 9.64017C4.01408 9.56984 4.05359 9.47446 4.05359 9.375V9Z" fill="#152A06"/>
<path d="M6.67859 9.75C6.77805 9.75 6.87343 9.71049 6.94375 9.64017C7.01408 9.56984 7.05359 9.47446 7.05359 9.375V9C7.05359 8.90054 7.01408 8.80516 6.94375 8.73483C6.87343 8.66451 6.77805 8.625 6.67859 8.625C6.57913 8.625 6.48375 8.66451 6.41342 8.73483C6.3431 8.80516 6.30359 8.90054 6.30359 9V9.375C6.30359 9.47446 6.3431 9.56984 6.41342 9.64017C6.48375 9.71049 6.57913 9.75 6.67859 9.75Z" fill="#152A06"/>
<path d="M6.19371 11.8902C6.26202 11.8194 6.29982 11.7247 6.29897 11.6264C6.29811 11.5281 6.25867 11.434 6.18915 11.3645C6.11962 11.2949 6.02556 11.2555 5.92724 11.2547C5.82892 11.2538 5.73419 11.2916 5.66346 11.3599C5.61134 11.4412 5.53962 11.5081 5.45489 11.5544C5.37016 11.6007 5.27515 11.625 5.17859 11.625C5.08203 11.625 4.98701 11.6007 4.90229 11.5544C4.81756 11.5081 4.74584 11.4412 4.69371 11.3599C4.62299 11.2916 4.52826 11.2538 4.42994 11.2547C4.33161 11.2555 4.23756 11.2949 4.16803 11.3645C4.0985 11.434 4.05907 11.5281 4.05821 11.6264C4.05736 11.7247 4.09515 11.8194 4.16346 11.8902C4.29177 12.0346 4.44768 12.1519 4.62202 12.2352C4.79636 12.3185 4.9856 12.366 5.17859 12.375C5.37158 12.366 5.56082 12.3185 5.73516 12.2352C5.90949 12.1519 6.06541 12.0346 6.19371 11.8902Z" fill="#152A06"/>
<path d="M19.981 16.6426L17.1786 15.842V15.0597C17.2921 15.01 17.403 14.9545 17.5108 14.8936C18.1261 15.4468 18.9248 15.752 19.7522 15.7501H20.5536C20.6084 15.7501 20.6625 15.7381 20.7121 15.715C20.7618 15.6918 20.8058 15.6581 20.841 15.6161C20.8762 15.5742 20.9018 15.525 20.9159 15.4721C20.9301 15.4192 20.9325 15.3638 20.923 15.3098L20.1808 11.1038C20.3189 10.9481 20.4226 10.765 20.4851 10.5665C20.5477 10.368 20.5677 10.1586 20.544 9.95184C20.5202 9.74509 20.4531 9.54566 20.3471 9.36656C20.2412 9.18745 20.0986 9.03268 19.9288 8.91234C20.0911 8.6948 20.1691 8.42581 20.1482 8.15521C20.1295 7.93021 20.1017 7.70108 20.065 7.46708C19.9478 6.73724 19.6453 6.04969 19.1863 5.47021L19.1113 5.03858C18.9743 4.25665 18.5657 3.54818 17.9575 3.03804C17.3492 2.52791 16.5804 2.24886 15.7866 2.25008H15.6786C15.2808 2.25008 14.8992 2.40812 14.6179 2.68942C14.3366 2.97073 14.1786 3.35226 14.1786 3.75008V3.99158C13.4373 4.2448 12.7785 4.69437 12.2725 5.29242C11.7666 5.89046 11.4323 6.61456 11.3053 7.38758C11.2622 7.64746 11.2303 7.90846 11.2082 8.16308C11.1884 8.43137 11.2663 8.69778 11.4276 8.91308C11.1963 9.07848 11.0171 9.30655 10.9111 9.57042C10.8052 9.83428 10.7769 10.1229 10.8295 10.4024C10.8822 10.6818 11.0136 10.9403 11.2083 11.1475C11.4031 11.3547 11.653 11.502 11.9286 11.5718V11.6251C11.9295 12.3543 12.1428 13.0674 12.5424 13.6773C12.9419 14.2872 13.5105 14.7676 14.1786 15.0597V15.842L11.4291 16.6295C10.9875 15.9089 10.2927 15.3793 9.48096 15.1445L6.67859 14.342V13.5597C7.34669 13.2676 7.91525 12.7872 8.31482 12.1773C8.71439 11.5674 8.92766 10.8543 8.92859 10.1251V10.0718C9.24168 9.99246 9.52054 9.81359 9.72323 9.56211C9.92593 9.31064 10.0415 9.00015 10.0526 8.67735C10.0637 8.35455 9.96964 8.03687 9.78466 7.77209C9.59969 7.50731 9.33375 7.30974 9.02684 7.20908L9.50384 5.53921C9.63332 5.08818 9.58848 4.60496 9.37821 4.18546L9.31296 4.05496C8.92906 3.28722 8.33895 2.64154 7.60876 2.19028C6.87857 1.73902 6.03715 1.5 5.17878 1.5C4.3204 1.5 3.47898 1.73902 2.74879 2.19028C2.0186 2.64154 1.4285 3.28722 1.04459 4.05496L0.978589 4.18546C0.768325 4.60496 0.723482 5.08818 0.852964 5.53921L1.32996 7.20908C1.02306 7.30978 0.757144 7.50738 0.572197 7.77219C0.387249 8.03699 0.293271 8.35468 0.304392 8.67749C0.315513 9.0003 0.431132 9.31077 0.633865 9.56222C0.836598 9.81367 1.11548 9.9925 1.42859 10.0718V10.1251C1.42951 10.8543 1.64279 11.5674 2.04236 12.1773C2.44192 12.7872 3.01049 13.2676 3.67859 13.5597V14.342L0.876214 15.1426C0.172256 15.3462 -0.446743 15.7725 -0.888015 16.3576C-1.32929 16.9427 -1.56906 17.655 -1.57141 18.3878L-1.57141 25.1251C-1.57141 25.2245 -1.5319 25.3199 -1.46158 25.3902C-1.39125 25.4606 -1.29587 25.5001 -1.19641 25.5001H22.0536C22.153 25.5001 22.2484 25.4606 22.3188 25.3902C22.3891 25.3199 22.4286 25.2245 22.4286 25.1251V19.8878C22.4262 19.155 22.1865 18.4427 21.7452 17.8576C21.3039 17.2725 20.6849 16.8462 19.981 16.6426ZM8.92859 7.97596C9.04242 8.04184 9.13692 8.13649 9.20262 8.25043C9.26832 8.36436 9.30291 8.49357 9.30291 8.62509C9.30291 8.7566 9.26832 8.88581 9.20262 8.99974C9.13692 9.11368 9.04242 9.20833 8.92859 9.27421V7.97596ZM19.4286 9.47596C19.5424 9.54184 19.6369 9.63649 19.7026 9.75043C19.7683 9.86436 19.8029 9.99357 19.8029 10.1251C19.8029 10.2566 19.7683 10.3858 19.7026 10.4997C19.6369 10.6137 19.5424 10.7083 19.4286 10.7742V9.47596ZM19.4286 11.5718C19.4522 11.5658 19.4747 11.5576 19.498 11.5501L20.1066 15.0001H19.7522C19.1685 15.001 18.6015 14.8055 18.1423 14.4451C18.5459 14.0943 18.8696 13.6611 19.0915 13.1747C19.3133 12.6882 19.4283 12.1598 19.4286 11.6251V11.5718ZM18.1682 4.52183C17.8606 4.31271 17.5282 4.14266 17.1786 4.01558V3.75008C17.1769 3.61964 17.1578 3.49001 17.122 3.36458C17.5798 3.63519 17.9447 4.0385 18.1682 4.52108V4.52183ZM14.9286 3.75008C14.9286 3.55117 15.0076 3.36041 15.1483 3.21975C15.2889 3.0791 15.4797 3.00008 15.6786 3.00008C15.8775 3.00008 16.0683 3.0791 16.2089 3.21975C16.3496 3.36041 16.4286 3.55117 16.4286 3.75008V3.81646C16.1809 3.77292 15.93 3.75072 15.6786 3.75008H15.613C15.3837 3.7511 15.1549 3.76991 14.9286 3.80633V3.75008ZM11.9286 10.7742C11.8148 10.7083 11.7203 10.6137 11.6546 10.4997C11.5889 10.3858 11.5543 10.2566 11.5543 10.1251C11.5543 9.99357 11.5889 9.86436 11.6546 9.75043C11.7203 9.63649 11.8148 9.54184 11.9286 9.47596V10.7742ZM12.0516 8.50209C12.017 8.46516 11.9906 8.42137 11.974 8.37356C11.9575 8.32575 11.9512 8.27499 11.9556 8.22458C11.9755 7.98983 12.0055 7.74909 12.0452 7.50909C12.185 6.66524 12.621 5.89884 13.2748 5.34739C13.9287 4.79594 14.7576 4.49554 15.613 4.50008H15.6786C16.5524 4.50117 17.3977 4.81133 18.0648 5.37567C18.732 5.94002 19.178 6.72216 19.324 7.58371C19.3581 7.79971 19.3836 8.01234 19.4008 8.21821C19.4053 8.27007 19.3988 8.32228 19.382 8.37152C19.3651 8.42077 19.3382 8.46596 19.3029 8.50423C19.2677 8.5425 19.2248 8.57301 19.1771 8.59382C19.1294 8.61463 19.0779 8.62527 19.0258 8.62509C18.7657 8.6259 18.5105 8.55382 18.2892 8.41703C18.0679 8.28023 17.8893 8.08417 17.7737 7.85109L17.5161 7.33246C17.485 7.27006 17.4371 7.21756 17.3778 7.18087C17.3185 7.14417 17.2502 7.12473 17.1805 7.12473C17.1107 7.12473 17.0424 7.14417 16.9831 7.18087C16.9238 7.21756 16.8759 7.27006 16.8448 7.33246C16.6517 7.72213 16.3532 8.04983 15.9832 8.27832C15.6132 8.50682 15.1865 8.62696 14.7516 8.62509H12.3317C12.279 8.62542 12.2268 8.61464 12.1785 8.59345C12.1303 8.57226 12.087 8.54113 12.0516 8.50209ZM12.6786 11.6251V9.37509H14.7516C15.2077 9.37657 15.6584 9.27637 16.0709 9.08176C16.4834 8.88715 16.8473 8.60304 17.1362 8.25009C17.2919 8.53875 17.5121 8.78764 17.7796 8.97741C18.0471 9.16719 18.3547 9.29275 18.6786 9.34433V11.6251C18.6786 12.4207 18.3625 13.1838 17.7999 13.7464C17.2373 14.309 16.4742 14.6251 15.6786 14.6251C14.8829 14.6251 14.1199 14.309 13.5573 13.7464C12.9947 13.1838 12.6786 12.4207 12.6786 11.6251ZM16.4286 15.3001V15.7501C16.4286 15.949 16.3496 16.1398 16.2089 16.2804C16.0683 16.4211 15.8775 16.5001 15.6786 16.5001C15.4797 16.5001 15.2889 16.4211 15.1483 16.2804C15.0076 16.1398 14.9286 15.949 14.9286 15.7501V15.3001C15.4235 15.4011 15.9337 15.4011 16.4286 15.3001ZM1.42859 9.27421C1.31476 9.20833 1.22025 9.11368 1.15455 8.99974C1.08886 8.88581 1.05427 8.7566 1.05427 8.62509C1.05427 8.49357 1.08886 8.36436 1.15455 8.25043C1.22025 8.13649 1.31476 8.04184 1.42859 7.97596V9.27421ZM1.57446 5.33296C1.49659 5.06252 1.52336 4.77268 1.64946 4.52108L1.71471 4.39058C2.0363 3.74735 2.53067 3.20638 3.1424 2.8283C3.75413 2.45021 4.45907 2.24995 5.17821 2.24995C5.89736 2.24995 6.60229 2.45021 7.21403 2.8283C7.82576 3.20638 8.32012 3.74735 8.64171 4.39058L8.70696 4.52108C8.83307 4.77268 8.85984 5.06252 8.78196 5.33296L8.39196 6.69871L7.34571 5.39071C7.31193 5.34845 7.2694 5.314 7.22105 5.28973C7.17269 5.26545 7.11966 5.25193 7.06559 5.25008C7.01121 5.24738 6.95693 5.257 6.90679 5.27824C6.85666 5.29947 6.81198 5.33177 6.77609 5.37271C5.64434 6.61771 4.10609 7.19408 2.08859 7.13708L1.57446 5.33296ZM2.17859 10.1251V7.88559C2.23559 7.88559 2.29409 7.89046 2.35034 7.89046C3.85733 7.94335 5.33816 7.48678 6.55371 6.59446C6.41448 6.95638 6.1663 7.26614 5.84346 7.48096L5.72046 7.56308C5.63772 7.61828 5.58029 7.70409 5.56081 7.80163C5.55116 7.84993 5.55112 7.89966 5.56069 7.94797C5.57026 7.99628 5.58926 8.04224 5.61659 8.08321C5.64392 8.12418 5.67905 8.15937 5.71998 8.18676C5.76091 8.21416 5.80684 8.23322 5.85514 8.24287C5.95268 8.26235 6.05397 8.24228 6.13671 8.18709L6.25971 8.10496C6.79486 7.74876 7.18012 7.20799 7.34196 6.58583L8.17859 7.63134V10.1251C8.17859 10.9207 7.86252 11.6838 7.29991 12.2464C6.7373 12.809 5.97424 13.1251 5.17859 13.1251C4.38294 13.1251 3.61988 12.809 3.05727 12.2464C2.49466 11.6838 2.17859 10.9207 2.17859 10.1251ZM5.92859 13.8001V14.2501C5.92859 14.449 5.84957 14.6398 5.70892 14.7804C5.56827 14.9211 5.3775 15.0001 5.17859 15.0001C4.97968 15.0001 4.78891 14.9211 4.64826 14.7804C4.50761 14.6398 4.42859 14.449 4.42859 14.2501V13.8001C4.92349 13.9011 5.43369 13.9011 5.92859 13.8001ZM0.678589 24.7456H-0.821411V21.0001H0.678589V24.7456ZM8.92859 24.7501H1.42859V20.6251C1.42859 20.5256 1.38908 20.4302 1.31875 20.3599C1.24843 20.2896 1.15305 20.2501 1.05359 20.2501H-0.821411V18.3878C-0.819908 17.8176 -0.633537 17.2633 -0.290263 16.808C0.0530115 16.3527 0.534677 16.0209 1.08246 15.8626L3.91671 15.053C4.05125 15.266 4.23752 15.4415 4.45817 15.5631C4.67881 15.6847 4.92665 15.7484 5.17859 15.7484C5.43053 15.7484 5.67837 15.6847 5.89901 15.5631C6.11966 15.4415 6.30593 15.266 6.44046 15.053L9.27471 15.8626C9.86408 16.0337 10.3753 16.405 10.7203 16.9126C10.1812 17.2009 9.72998 17.6296 9.41456 18.1534C9.09914 18.6771 8.93122 19.2764 8.92859 19.8878V24.7501ZM11.1786 24.7501H9.67859V22.5046H11.1786V24.7501ZM21.6786 24.7501H20.1786V22.5046H21.6786V24.7501ZM21.6786 21.7546H19.8036C19.7041 21.7546 19.6087 21.7941 19.5384 21.8644C19.4681 21.9347 19.4286 22.0301 19.4286 22.1296V24.7501H11.9286V22.1296C11.9286 22.0301 11.8891 21.9347 11.8188 21.8644C11.7484 21.7941 11.653 21.7546 11.5536 21.7546H9.67859V19.8878C9.68042 19.3179 9.86694 18.7639 10.2102 18.3089C10.5534 17.8539 11.0349 17.5224 11.5825 17.3641L14.4167 16.5545C14.5513 16.7675 14.7375 16.943 14.9582 17.0646C15.1788 17.1862 15.4267 17.2499 15.6786 17.2499C15.9305 17.2499 16.1784 17.1862 16.399 17.0646C16.6197 16.943 16.8059 16.7675 16.9405 16.5545L19.7747 17.3626C20.3225 17.5209 20.8042 17.8527 21.1474 18.308C21.4907 18.7633 21.6771 19.3176 21.6786 19.8878V21.7546Z" fill="#152A06"/>
<path d="M14.5536 10.5C14.5536 10.4005 14.5141 10.3052 14.4438 10.2348C14.3734 10.1645 14.278 10.125 14.1786 10.125C14.0791 10.125 13.9837 10.1645 13.9134 10.2348C13.8431 10.3052 13.8036 10.4005 13.8036 10.5V10.875C13.8036 10.9745 13.8431 11.0698 13.9134 11.1402C13.9837 11.2105 14.0791 11.25 14.1786 11.25C14.278 11.25 14.3734 11.2105 14.4438 11.1402C14.5141 11.0698 14.5536 10.9745 14.5536 10.875V10.5Z" fill="#152A06"/>
<path d="M17.1786 11.25C17.278 11.25 17.3734 11.2105 17.4438 11.1402C17.5141 11.0698 17.5536 10.9745 17.5536 10.875V10.5C17.5536 10.4005 17.5141 10.3052 17.4438 10.2348C17.3734 10.1645 17.278 10.125 17.1786 10.125C17.0791 10.125 16.9837 10.1645 16.9134 10.2348C16.8431 10.3052 16.8036 10.4005 16.8036 10.5V10.875C16.8036 10.9745 16.8431 11.0698 16.9134 11.1402C16.9837 11.2105 17.0791 11.25 17.1786 11.25Z" fill="#152A06"/>
<path d="M16.6937 13.3902C16.762 13.3194 16.7998 13.2247 16.799 13.1264C16.7981 13.0281 16.7587 12.934 16.6891 12.8645C16.6196 12.7949 16.5256 12.7555 16.4272 12.7547C16.3289 12.7538 16.2342 12.7916 16.1635 12.8599C16.1113 12.9412 16.0396 13.0081 15.9549 13.0544C15.8702 13.1007 15.7752 13.125 15.6786 13.125C15.582 13.125 15.487 13.1007 15.4023 13.0544C15.3176 13.0081 15.2458 12.9412 15.1937 12.8599C15.123 12.7916 15.0283 12.7538 14.9299 12.7547C14.8316 12.7555 14.7376 12.7949 14.668 12.8645C14.5985 12.934 14.5591 13.0281 14.5582 13.1264C14.5574 13.2247 14.5952 13.3194 14.6635 13.3902C14.7859 13.5413 14.9407 13.6632 15.1163 13.747C15.2919 13.8307 15.484 13.8742 15.6786 13.8742C15.8732 13.8742 16.0653 13.8307 16.2409 13.747C16.4165 13.6632 16.5712 13.5413 16.6937 13.3902Z" fill="#152A06"/>
</g>
<defs>
<clipPath id="clip0_2354_2039">
<rect width="20" height="20" fill="white" transform="translate(0.428589)"/>
</clipPath>
</defs>
</svg>
