<svg width="21" height="20" viewBox="0 0 21 20" fill="none" xmlns="http://www.w3.org/2000/svg">
<rect width="20" height="20" transform="translate(0.714355)" fill="white"/>
<path opacity="0.3" d="M5.5 9.67725C5.5 12.0398 7.80412 17.8439 10.1667 17.8439C15.2222 18.6217 16 13.2065 16 10.8439C16 8.48136 12.1403 6.17725 9.77778 6.17725C7.41523 6.17725 5.5 7.31469 5.5 9.67725Z" fill="#26A69A"/>
<g clip-path="url(#clip0_2354_2060)">
<path d="M6.42871 17H14.4287V18H5.42871V16H3.42871V2H10.1396L13.2803 5.14062L16.4287 8.28906V9H11.4287V5H6.42871V17ZM12.4287 8H14.7178L12.4287 5.71094V8ZM5.42871 15V4H10.7178L9.71777 3H4.42871V15H5.42871ZM15.9287 11.7969L18.4053 14.2734L17.7021 14.9766L16.4287 13.7109V18H15.4287V13.7109L14.1553 14.9766L13.4521 14.2734L15.9287 11.7969ZM18.4287 10V11H13.4287V10H18.4287Z" fill="#152A06"/>
</g>
<defs>
<clipPath id="clip0_2354_2060">
<rect width="16" height="16" fill="white" transform="translate(2.42871 2)"/>
</clipPath>
</defs>
</svg>
