<svg width="20" height="20" viewBox="0 0 20 20" fill="none" xmlns="http://www.w3.org/2000/svg">
<g id="akar-icons:reciept">
<g id="Group">
<path id="Vector" d="M15.8333 17.5H5.83333C4.94928 17.5 4.10143 17.1488 3.47631 16.5237C2.85119 15.8986 2.5 15.0507 2.5 14.1667V4.16667C2.5 3.72464 2.67559 3.30072 2.98816 2.98816C3.30072 2.67559 3.72464 2.5 4.16667 2.5H12.5C12.942 2.5 13.3659 2.67559 13.6785 2.98816C13.9911 3.30072 14.1667 3.72464 14.1667 4.16667V15C14.1667 16.3808 14.4525 17.5 15.8333 17.5Z" stroke="#199CDA" stroke-linecap="round" stroke-linejoin="round"/>
<path id="Vector_2" d="M17.4993 8.33464C17.4993 7.89261 17.3238 7.46868 17.0112 7.15612C16.6986 6.84356 16.2747 6.66797 15.8327 6.66797H14.166V15.418C14.166 16.568 14.6827 17.5013 15.8327 17.5013C16.9827 17.5013 17.4993 16.568 17.4993 15.418V8.33464Z" stroke="#199CDA" stroke-linecap="round" stroke-linejoin="round"/>
<path id="Vector_3" d="M10.834 9.16536H5.83398M10.834 5.83203H5.83398M8.33398 12.4987H5.83398" stroke="#199CDA" stroke-linecap="round"/>
</g>
</g>
</svg>
