<svg width="20" height="20" viewBox="0 0 20 20" fill="none" xmlns="http://www.w3.org/2000/svg">
<path d="M2.85449 7.775C3.32227 6.23722 4.20727 4.97334 5.50949 3.98334C6.81171 2.99334 8.30866 2.49889 10.0003 2.5C10.9537 2.5 11.8503 2.66389 12.6903 2.99167C13.5303 3.31945 14.2848 3.77834 14.9537 4.36834C14.877 4.53722 14.8142 4.69139 14.7653 4.83084C14.717 4.97028 14.6773 5.10306 14.6462 5.22917C14.035 4.64584 13.3337 4.18417 12.542 3.84417C11.7503 3.50417 10.9031 3.33389 10.0003 3.33334C8.59754 3.33334 7.3406 3.72584 6.22949 4.51084C5.11838 5.29584 4.31282 6.29917 3.81282 7.52084C3.6406 7.5175 3.47365 7.53611 3.31199 7.57667C3.15032 7.61722 2.99782 7.68361 2.85449 7.77584M10.0003 17.5C8.3081 17.5 6.81088 17.0081 5.50866 16.0242C4.20643 15.0403 3.32171 13.7792 2.85449 12.2408C2.99449 12.3325 3.14532 12.3992 3.30699 12.4408C3.46865 12.4825 3.63727 12.5022 3.81282 12.5C4.31282 13.7222 5.11838 14.7222 6.22949 15.5C7.3406 16.2778 8.59754 16.6667 10.0003 16.6667C11.8475 16.6667 13.4206 16.0175 14.7195 14.7192C16.0184 13.4208 16.6675 11.8478 16.667 10C16.667 9.76389 16.6564 9.52778 16.6353 9.29167C16.6142 9.05556 16.5762 8.81945 16.5212 8.58334C16.6417 8.61778 16.7578 8.64889 16.8695 8.67667C16.9812 8.70445 17.1006 8.72361 17.2278 8.73417C17.2567 8.73417 17.2856 8.7325 17.3145 8.72917C17.3434 8.72584 17.3706 8.72111 17.3962 8.715C17.435 8.92611 17.462 9.13667 17.477 9.34667C17.4925 9.55667 17.5003 9.77445 17.5003 10C17.5003 11.0356 17.3031 12.0094 16.9087 12.9217C16.5137 13.8339 15.9787 14.6275 15.3037 15.3025C14.6281 15.9781 13.8342 16.5131 12.922 16.9075C12.0098 17.3025 11.0359 17.5 10.0003 17.5ZM7.00032 9.31417L8.38199 7.91667L6.97949 6.51417L6.47282 7.02084L7.36866 7.89584L6.47282 8.79167L7.00032 9.31417ZM17.5003 7.24334C17.117 7.24334 16.7862 7.10445 16.5078 6.82667C16.2295 6.54778 16.0903 6.21667 16.0903 5.83334C16.0903 5.50111 16.1756 5.15528 16.3462 4.79584C16.5173 4.43639 16.902 3.82056 17.5003 2.94834C18.0987 3.82056 18.4831 4.43639 18.6537 4.79584C18.8248 5.15528 18.9103 5.50111 18.9103 5.83334C18.9103 6.21667 18.7714 6.5475 18.4937 6.82584C18.2148 7.10417 17.8837 7.24334 17.5003 7.24334ZM13.0212 9.31834L13.5487 8.79167L12.6528 7.89584L13.5278 7.02084L13.0212 6.51417L11.6187 7.91667L13.0212 9.31834ZM10.0003 11.25C9.6181 11.25 9.2381 11.305 8.86032 11.415C8.48254 11.525 8.12477 11.6939 7.78699 11.9217L4.74366 10.1442C4.74366 9.94306 4.70421 9.75084 4.62532 9.5675C4.54643 9.38417 4.42032 9.24195 4.24699 9.14084C4.00532 9.00639 3.75338 8.97361 3.49116 9.0425C3.22893 9.11139 3.02893 9.265 2.89115 9.50334C2.75671 9.745 2.72393 9.99695 2.79282 10.2592C2.86171 10.5214 3.01532 10.7214 3.25365 10.8592C3.42643 10.9592 3.61338 10.9986 3.81449 10.9775C4.0156 10.9564 4.20254 10.8953 4.37532 10.7942L7.17532 12.4092C7.0031 12.5808 6.84199 12.7675 6.69199 12.9692C6.54199 13.1708 6.40977 13.3989 6.29532 13.6533H7.12532C7.41699 13.1533 7.81282 12.7506 8.31282 12.445C8.81282 12.1394 9.37532 11.9867 10.0003 11.9867C10.6253 11.9867 11.1878 12.1394 11.6878 12.445C12.1878 12.7506 12.5837 13.1533 12.8753 13.6533H13.7053C13.3187 12.8461 12.7895 12.2436 12.1178 11.8458C11.4467 11.4486 10.7409 11.25 10.0003 11.25Z" fill="#EF661A"/>
</svg>
