<svg width="20" height="20" viewBox="0 0 20 20" fill="none" xmlns="http://www.w3.org/2000/svg">
<g id="mage:user">
<path id="Vector" d="M16.349 17.7096C16.349 14.708 13.0023 12.268 10.0007 12.268C6.99901 12.268 3.65234 14.708 3.65234 17.7096M10.0007 9.54797C10.9627 9.54797 11.8854 9.16579 12.5657 8.4855C13.246 7.80521 13.6282 6.88254 13.6282 5.92047C13.6282 4.9584 13.246 4.03573 12.5657 3.35544C11.8854 2.67515 10.9627 2.29297 10.0007 2.29297C9.0386 2.29297 8.11594 2.67515 7.43565 3.35544C6.75536 4.03573 6.37318 4.9584 6.37318 5.92047C6.37318 6.88254 6.75536 7.80521 7.43565 8.4855C8.11594 9.16579 9.0386 9.54797 10.0007 9.54797Z" stroke="#EF661A" stroke-width="1.5" stroke-linecap="round" stroke-linejoin="round"/>
</g>
</svg>
