<svg width="24" height="24" viewBox="0 0 24 24" fill="none" xmlns="http://www.w3.org/2000/svg">
<path d="M4 12C4 12.2652 4.10536 12.5196 4.29289 12.7071C4.48043 12.8946 4.73478 13 5 13H12.59L10.29 15.29C10.1968 15.3832 10.1228 15.4939 10.0723 15.6158C10.0219 15.7376 9.99591 15.8681 9.99591 16C9.99591 16.1319 10.0219 16.2624 10.0723 16.3842C10.1228 16.5061 10.1968 16.6168 10.29 16.71C10.3832 16.8032 10.4939 16.8772 10.6158 16.9277C10.7376 16.9781 10.8681 17.0041 11 17.0041C11.1319 17.0041 11.2624 16.9781 11.3842 16.9277C11.5061 16.8772 11.6168 16.8032 11.71 16.71L15.71 12.71C15.801 12.6149 15.8724 12.5028 15.92 12.38C16.02 12.1365 16.02 11.8635 15.92 11.62C15.8724 11.4972 15.801 11.3851 15.71 11.29L11.71 7.29C11.617 7.19627 11.5064 7.12188 11.3846 7.07111C11.2627 7.02034 11.132 6.9942 11 6.9942C10.868 6.9942 10.7373 7.02034 10.6154 7.07111C10.4936 7.12188 10.383 7.19627 10.29 7.29C10.1963 7.38296 10.1219 7.49356 10.0711 7.61542C10.0203 7.73728 9.9942 7.86799 9.9942 8C9.9942 8.13201 10.0203 8.26272 10.0711 8.38458C10.1219 8.50644 10.1963 8.61704 10.29 8.71L12.59 11H5C4.73478 11 4.48043 11.1054 4.29289 11.2929C4.10536 11.4804 4 11.7348 4 12ZM7 22H17C17.7956 22 18.5587 21.6839 19.1213 21.1213C19.6839 20.5587 20 19.7956 20 19L20 5C20 4.20435 19.6839 3.44129 19.1213 2.87868C18.5587 2.31607 17.7956 2 17 2H7C6.20435 2 5.44129 2.31607 4.87868 2.87868C4.31607 3.44129 4 4.20435 4 5V8C4 8.26522 4.10536 8.51957 4.29289 8.70711C4.48043 8.89464 4.73478 9 5 9C5.26522 9 5.51957 8.89464 5.70711 8.70711C5.89464 8.51957 6 8.26522 6 8V5C6 4.73478 6.10536 4.48043 6.29289 4.29289C6.48043 4.10536 6.73478 4 7 4H17C17.2652 4 17.5196 4.10536 17.7071 4.29289C17.8946 4.48043 18 4.73478 18 5L18 19C18 19.2652 17.8946 19.5196 17.7071 19.7071C17.5196 19.8946 17.2652 20 17 20H7C6.73478 20 6.48043 19.8946 6.29289 19.7071C6.10536 19.5196 6 19.2652 6 19V16C6 15.7348 5.89464 15.4804 5.70711 15.2929C5.51957 15.1054 5.26522 15 5 15C4.73478 15 4.48043 15.1054 4.29289 15.2929C4.10536 15.4804 4 15.7348 4 16V19C4 19.7956 4.31607 20.5587 4.87868 21.1213C5.44129 21.6839 6.20435 22 7 22Z" fill="#2A295C"/>
</svg>
